<?xml version="1.0" encoding="UTF-8"?>
<svg width="248" height="253" viewBox="0 0 248 253" xmlns="http://www.w3.org/2000/svg">
  <circle cx="129.532" cy="136.073" r="116.927" fill="#B7DEFB" fill-opacity="0.3" />
  <path d="M14.6571 115.56V122.397V127.868C15.7968 129.919 17.9393 134.569 17.3923 136.757C17.8481 137.669 18.7598 140.312 18.7598 143.595C18.7598 144.05 19.0333 145.099 20.1274 145.646C20.5833 145.874 21.495 146.877 21.495 149.065C22.1787 149.977 23.8198 151.8 24.9139 151.8C26.2814 151.8 29.1533 152.894 29.7003 157.27C31.0679 159.094 33.5295 163.835 32.4355 168.211L30.3841 175.049C30.612 176.644 31.2047 179.972 31.7517 180.519C32.8913 183.71 34.8971 190.639 33.803 192.827C32.8913 192.599 31.0679 192.553 31.0679 194.194L31.7517 197.613C32.7441 199.929 34.6007 203.997 35.9627 206.264C36.4031 206.847 36.8241 207.384 37.2219 207.87C36.9218 207.72 36.4776 207.121 35.9627 206.264C29.5912 197.823 19.1606 179.624 16.0247 163.424C11.9215 142.227 11.9226 131.287 14.6571 115.56Z" fill="#B7DEFB" fill-opacity="0.2" stroke="#B7DEFB" stroke-width="0.5" />
  <path d="M93.2914 67.6952L101.497 69.0628L109.702 65.6439H119.275L122.01 64.2763H124.062L123.378 66.3277L124.062 68.379L122.01 70.4303L126.797 73.1655H128.848L132.951 73.8493L134.318 75.9006L141.156 79.3195L143.207 76.5844L142.524 75.2168L147.31 73.1655L162.353 77.2682H167.824L171.926 75.2168V67.6952L170.559 64.2763H169.875L166.456 66.3277L165.772 64.2763C164.633 64.7322 162.08 65.9174 160.986 67.0114C159.892 68.1055 158.706 66.5556 158.251 65.6439L155.516 64.2763L152.097 60.8574L154.148 59.4898H158.251L160.986 58.1223L162.353 56.0709H165.772L167.824 57.4385L171.926 58.1223L176.713 56.7547L178.08 55.3871L174.661 53.3358L170.559 51.9682C169.875 51.5124 168.371 50.6007 167.824 50.6007C167.277 50.6007 167.596 49.2331 167.824 48.5493H163.721V50.6007V52.652H162.353V50.6007L160.986 49.2331L158.251 48.5493L156.199 49.2331L155.516 50.6007L153.464 52.652V55.3871L155.516 56.0709V57.4385H153.464H150.729L149.361 58.1223L147.31 59.4898L150.045 64.2763V67.0114L149.361 67.6952L147.31 64.2763L142.524 60.8574V56.7547L136.37 53.3358L130.899 49.2331L127.48 50.6007V52.652L135.686 56.7547L138.421 59.4898H136.37V60.8574L133.634 62.9087V59.4898L128.164 56.0709L123.378 52.652H120.643L119.275 53.3358L115.856 54.0196L113.805 52.652L111.07 53.3358L112.437 56.0709L106.967 58.1223L104.916 60.8574L101.497 65.6439H94.6589L93.2914 64.2763H87.8211V60.8574L91.9238 58.1223L93.2914 53.3358L104.916 52.652L105.599 49.2331L101.497 47.1818V44.4466H105.599L107.651 43.7629L110.386 44.4466L119.275 37.6088L123.378 35.5575L125.429 34.1899L128.164 35.5575L126.797 37.6088L130.899 36.925H133.634H136.37H139.789V34.8737L142.524 34.1899L141.156 32.1386H147.31V31.4548L139.789 30.0872L138.421 28.7197L141.156 27.3521L138.421 25.9845L137.737 27.3521L135.002 28.7197L133.634 30.0872L136.37 31.4548L130.899 34.1899L126.113 31.4548L120.643 32.1386V28.7197L127.48 27.3521L130.899 23.9332L135.002 23.2494L141.156 21.8818L152.097 25.3007H147.31L152.097 27.3521H153.464L154.148 25.3007H159.618L162.353 23.9332C181.499 26.6683 203.152 44.6746 211.586 53.3358C223.62 64.8233 234.834 86.3853 238.937 95.7303V107.355L244.407 125.817L243.04 128.552L234.834 105.303L224.577 88.2087L210.902 86.8411L199.278 79.3195L196.542 80.6871L206.115 91.6276H208.167L210.218 88.2087L217.056 95.7303V99.833V101.884L215.688 103.936L215.005 107.355L211.586 108.722L210.902 110.773L198.594 118.979L196.542 117.611L195.859 110.773L189.021 101.201L186.969 99.833L185.602 97.7816L183.551 93.6789L180.815 91.6276L179.448 88.8925L174.661 83.4222H173.294L168.507 80.6871L176.713 91.6276L178.08 95.7303H180.132L182.867 103.936L185.602 105.303L189.021 112.825L195.859 118.979L196.542 121.03L199.278 123.765L210.218 119.663V128.552C209.671 131.834 205.432 139.948 203.38 143.595L198.594 147.014L189.021 162.057L190.388 185.306L182.867 191.46L176.713 196.93V203.768L174.661 207.187L169.875 208.554V212.657L154.832 223.597H149.361L141.84 224.965L132.267 212.657L130.899 202.4L125.429 192.827L127.48 182.571L130.899 179.835L128.848 176.417C128.392 175.733 127.754 174.228 128.848 173.681C129.942 173.134 129.304 171.174 128.848 170.262C127.754 169.168 127.48 166.616 127.48 165.476L117.908 153.852L120.643 150.433V141.544L116.54 140.176H111.07C110.614 139.264 109.429 137.304 108.335 136.757C107.241 136.21 103.32 135.618 101.497 135.39C98.7616 134.843 94.8869 137.441 93.2914 138.809L78.9319 140.176L67.9914 130.603V124.449L61.8374 121.03V112.825C66.6239 108.722 63.8887 103.936 65.2563 103.252C66.3504 102.705 64.8005 99.3771 63.8887 97.7816L71.4103 88.2087L74.8293 84.106C76.4703 84.106 80.0716 81.8267 81.6671 80.6871C83.3082 80.6871 83.7184 77.0402 83.7184 75.2168L93.2914 67.6952Z" fill="#B7DEFB" fill-opacity="1" stroke="#B7DEFB" stroke-width="0.5" />
  <path d="M195.175 204.451L193.807 205.819L191.756 205.135L191.072 203.768L191.756 201.716L191.072 198.981L193.124 196.93L194.491 194.878L195.859 192.827L195.175 190.092L196.543 187.357L198.594 185.305L202.013 181.887L204.064 179.151L206.799 177.1V181.203L207.483 183.254L206.799 183.938L207.483 185.989L205.432 189.408L197.226 204.451H195.175Z" fill="#B7DEFB" fill-opacity="0.2" stroke="#B7DEFB" stroke-width="0.5" />
  <path d="M91.9244 52.6518L91.8573 52.2829L91.9244 52.6518ZM6.76435 105.357C6.79415 105.562 6.98447 105.704 7.18942 105.674L10.5293 105.188C10.7342 105.159 10.8762 104.968 10.8464 104.763C10.8166 104.558 10.6263 104.416 10.4213 104.446L7.45256 104.878L7.02074 101.909C6.99092 101.704 6.80062 101.562 6.59567 101.592C6.39071 101.622 6.24874 101.812 6.27854 102.017L6.76435 105.357ZM182.184 67.0112C182.385 66.6949 182.385 66.6948 182.385 66.6948C182.385 66.6948 182.385 66.6948 182.385 66.6948C182.385 66.6947 182.385 66.6947 182.385 66.6946C182.384 66.6945 182.384 66.6943 182.384 66.6941C182.383 66.6936 182.382 66.6929 182.381 66.6921C182.378 66.6904 182.374 66.688 182.369 66.6849C182.359 66.6785 182.344 66.6692 182.325 66.657C182.286 66.6326 182.227 66.5967 182.151 66.5499C181.997 66.4562 181.769 66.319 181.468 66.1435C180.866 65.7925 179.974 65.2884 178.807 64.6737L178.457 65.3372C179.614 65.9467 180.497 66.4455 181.09 66.7914C181.387 66.9643 181.611 67.099 181.76 67.1901C181.835 67.2357 181.891 67.2704 181.928 67.2935C181.946 67.3051 181.96 67.3137 181.969 67.3195C181.974 67.3223 181.977 67.3244 181.979 67.3258C181.98 67.3265 181.981 67.327 181.982 67.3273C181.982 67.3274 181.982 67.3275 181.982 67.3276C181.982 67.3276 181.982 67.3276 181.982 67.3276C181.982 67.3276 181.982 67.3276 181.982 67.3276C181.982 67.3276 181.982 67.3276 182.184 67.0112ZM174.192 62.3959C172.053 61.4041 169.522 60.3117 166.629 59.199L166.36 59.899C169.236 61.0053 171.752 62.0911 173.877 63.0763L174.192 62.3959ZM161.796 57.4473C159.362 56.6175 156.736 55.7998 153.93 55.0276L153.731 55.7507C156.522 56.5187 159.134 57.332 161.554 58.1572L161.796 57.4473ZM148.968 53.7593C146.406 53.1542 143.719 52.596 140.915 52.1055L140.786 52.8443C143.575 53.3322 146.247 53.8873 148.796 54.4892L148.968 53.7593ZM135.836 51.3127C133.201 50.9509 130.477 50.6534 127.668 50.435L127.61 51.1828C130.403 51.3999 133.113 51.6959 135.734 52.0557L135.836 51.3127ZM122.547 50.1317C119.874 50.0228 117.133 49.9884 114.329 50.0402L114.343 50.7901C117.132 50.7386 119.858 50.7728 122.517 50.8811L122.547 50.1317ZM109.2 50.2296C106.52 50.3782 103.788 50.6074 101.006 50.9267L101.092 51.6718C103.858 51.3543 106.576 51.1262 109.241 50.9785L109.2 50.2296ZM95.9182 51.6052C94.5749 51.8094 93.2211 52.0349 91.8573 52.2829L91.9915 53.0208C93.3481 52.7741 94.6947 52.5498 96.0309 52.3467L95.9182 51.6052ZM91.8573 52.2829C90.5577 52.5192 89.2706 52.7758 87.9961 53.0516L88.1548 53.7846C89.4212 53.5106 90.7002 53.2555 91.9915 53.0208L91.8573 52.2829ZM83.2175 54.1891C80.6482 54.8564 78.134 55.5996 75.6764 56.4086L75.9109 57.1209C78.3538 56.3168 80.8526 55.5781 83.406 54.915L83.2175 54.1891ZM71.0417 58.0349C68.5544 58.9619 66.1298 59.9535 63.7696 60.9981L64.0732 61.684C66.4202 60.6452 68.8309 59.6593 71.3037 58.7376L71.0417 58.0349ZM59.3139 63.0678C56.9212 64.232 54.6009 65.4465 52.3549 66.6982L52.72 67.3533C54.9543 66.1082 57.2624 64.9 59.6421 63.7422L59.3139 63.0678ZM48.1021 69.1629C45.809 70.5435 43.602 71.9565 41.4835 73.3858L41.903 74.0075C44.0113 72.5852 46.2074 71.1791 48.489 69.8055L48.1021 69.1629ZM37.4508 76.1996C35.2552 77.7828 33.168 79.3729 31.1923 80.9485L31.66 81.5349C33.6266 79.9664 35.7042 78.3837 37.8894 76.8079L37.4508 76.1996ZM27.4045 84.0625C25.2936 85.8508 23.3346 87.601 21.5325 89.2799L22.0437 89.8286C23.8377 88.1573 25.7879 86.415 27.8893 84.6347L27.4045 84.0625ZM17.9956 92.6746C15.8931 94.7541 14.074 96.6673 12.55 98.3366L13.1039 98.8422C14.6199 97.1817 16.4302 95.2778 18.523 93.2079L17.9956 92.6746ZM9.30209 102.028C8.48979 102.989 7.87399 103.75 7.46077 104.272C7.25417 104.533 7.0982 104.734 6.99362 104.87C6.94135 104.938 6.90191 104.99 6.87541 105.025C6.86217 105.042 6.85216 105.056 6.84539 105.065C6.84202 105.069 6.83944 105.073 6.83769 105.075C6.83681 105.076 6.83615 105.077 6.83567 105.078C6.83543 105.078 6.83525 105.078 6.83512 105.078C6.83504 105.079 6.835 105.079 6.83495 105.079C6.83494 105.079 6.83491 105.079 6.8349 105.079C6.83487 105.079 6.83486 105.079 7.13544 105.303C7.43601 105.527 7.436 105.527 7.436 105.527C7.436 105.527 7.436 105.527 7.436 105.527C7.43601 105.527 7.43604 105.527 7.43607 105.527C7.43613 105.527 7.43625 105.527 7.43642 105.527C7.43677 105.526 7.43732 105.526 7.43806 105.525C7.43956 105.522 7.44187 105.519 7.44499 105.515C7.45124 105.507 7.46073 105.494 7.47344 105.478C7.49887 105.444 7.53724 105.394 7.58842 105.327C7.69081 105.194 7.8445 104.995 8.04875 104.738C8.45727 104.222 9.06799 103.466 9.87486 102.512L9.30209 102.028ZM91.9244 52.6518L91.7902 51.9139L91.9244 52.6518ZM6.39325 105.411C6.45287 105.821 6.8335 106.105 7.24339 106.045L13.9231 105.074C14.333 105.014 14.617 104.633 14.5573 104.223C14.4977 103.814 14.1171 103.53 13.7072 103.589L7.76967 104.453L6.90603 98.5154C6.84642 98.1054 6.46579 97.8215 6.0559 97.8811C5.64599 97.9407 5.36203 98.3214 5.42165 98.7313L6.39325 105.411ZM182.184 67.0112C182.586 66.3785 182.586 66.3785 182.586 66.3784C182.586 66.3784 182.586 66.3784 182.586 66.3783C182.586 66.3783 182.586 66.3782 182.586 66.3781C182.585 66.3779 182.585 66.3777 182.585 66.3774C182.584 66.3769 182.583 66.3762 182.581 66.3753C182.578 66.3735 182.574 66.3709 182.569 66.3675C182.558 66.3609 182.543 66.3513 182.523 66.3388C182.483 66.3138 182.424 66.2772 182.346 66.2297C182.19 66.1348 181.96 65.9963 181.657 65.8195C181.051 65.466 180.153 64.9593 178.982 64.342L178.283 65.669C179.434 66.2758 180.313 66.772 180.901 67.1153C181.196 67.2869 181.417 67.4203 181.565 67.5102C181.638 67.5552 181.693 67.5892 181.73 67.6117C181.748 67.623 181.761 67.6314 181.77 67.6368C181.774 67.6395 181.777 67.6414 181.779 67.6426C181.78 67.6432 181.78 67.6436 181.781 67.6439C181.781 67.644 181.781 67.644 181.781 67.6441C181.781 67.6441 181.781 67.6441 181.781 67.6441C181.781 67.644 181.781 67.644 181.781 67.644C181.781 67.644 181.781 67.644 182.184 67.0112ZM174.35 62.0557C172.204 61.0606 169.665 59.9649 166.764 58.849L166.225 60.249C169.093 61.3521 171.601 62.4346 173.719 63.4165L174.35 62.0557ZM161.917 57.0924C159.476 56.2602 156.843 55.4403 154.03 54.666L153.632 56.1122C156.414 56.8782 159.019 57.6892 161.433 58.5121L161.917 57.0924ZM149.054 53.3943C146.485 52.7876 143.791 52.2279 140.98 51.7361L140.721 53.2137C143.502 53.7002 146.168 54.2539 148.71 54.8541L149.054 53.3943ZM135.887 50.9412C133.245 50.5784 130.513 50.2801 127.697 50.0611L127.581 51.5566C130.367 51.7732 133.069 52.0684 135.683 52.4272L135.887 50.9412ZM122.563 49.757C119.883 49.6478 117.134 49.6133 114.322 49.6652L114.35 51.165C117.132 51.1137 119.85 51.1478 122.502 51.2558L122.563 49.757ZM109.179 49.8552C106.492 50.0042 103.752 50.234 100.963 50.5542L101.134 52.0444C103.893 51.7277 106.604 51.5003 109.262 51.3529L109.179 49.8552ZM95.8618 51.2345C94.515 51.4391 93.1576 51.6653 91.7902 51.9139L92.0586 53.3897C93.4116 53.1437 94.7546 52.92 96.0872 52.7175L95.8618 51.2345ZM91.7902 51.9139C90.4865 52.151 89.1953 52.4084 87.9168 52.6851L88.2341 54.1512C89.4965 53.8779 90.7714 53.6237 92.0586 53.3897L91.7902 51.9139ZM83.1232 53.8261C80.5459 54.4955 78.0241 55.2409 75.5592 56.0524L76.0282 57.4771C78.4636 56.6754 80.9548 55.939 83.5003 55.278L83.1232 53.8261ZM70.9108 57.6835C68.4162 58.6132 65.9846 59.6077 63.6179 60.6552L64.225 62.0269C66.5653 60.991 68.9691 60.008 71.4346 59.089L70.9108 57.6835ZM59.1499 62.7306C56.7507 63.8979 54.4241 65.1157 52.1723 66.3706L52.9025 67.6809C55.1311 66.439 57.4329 65.2341 59.8061 64.0794L59.1499 62.7306ZM47.9087 68.8417C45.6098 70.2257 43.3974 71.6422 41.2738 73.0749L42.1127 74.3184C44.2159 72.8995 46.4066 71.4969 48.6824 70.1267L47.9087 68.8417ZM37.2314 75.8954C35.0307 77.4823 32.9386 79.0761 30.9585 80.6553L31.8938 81.828C33.8559 80.2632 35.9287 78.6841 38.1088 77.1121L37.2314 75.8954ZM27.1621 83.7763C25.0465 85.5687 23.083 87.3228 21.2769 89.0055L22.2994 90.103C24.0893 88.4354 26.0351 86.6971 28.1317 84.9208L27.1621 83.7763ZM17.732 92.408C15.6245 94.4923 13.801 96.4101 12.2731 98.0838L13.3809 99.0951C14.8929 97.4388 16.6988 95.5396 18.7867 93.4745L17.732 92.408ZM9.0157 101.786C8.20068 102.75 7.58236 103.514 7.16679 104.039C6.959 104.302 6.8019 104.504 6.69624 104.642C6.6434 104.71 6.60342 104.763 6.57641 104.799C6.5629 104.816 6.55262 104.83 6.54559 104.839C6.54209 104.844 6.53939 104.848 6.5375 104.85C6.53656 104.852 6.53582 104.852 6.53529 104.853C6.53501 104.854 6.53481 104.854 6.53464 104.854C6.53456 104.854 6.53448 104.854 6.53442 104.854C6.5344 104.854 6.53436 104.854 6.53435 104.854C6.53433 104.855 6.53429 104.855 7.13544 105.303C7.73658 105.751 7.73656 105.752 7.73653 105.752C7.73653 105.752 7.73652 105.752 7.73652 105.752C7.73651 105.752 7.73652 105.752 7.73653 105.752C7.73659 105.751 7.73667 105.751 7.7368 105.751C7.73709 105.751 7.73756 105.75 7.73825 105.749C7.73962 105.747 7.74181 105.745 7.74479 105.741C7.75078 105.733 7.76001 105.72 7.77245 105.704C7.79736 105.671 7.83519 105.621 7.88582 105.555C7.9871 105.423 8.13967 105.227 8.34275 104.97C8.74891 104.457 9.3571 103.705 10.1612 102.754L9.0157 101.786Z" fill="#2A3795" />
  <path d="M151.413 18.6462L151.591 18.3163L151.591 18.3163L151.413 18.6462ZM110.699 15.8526C110.667 16.0572 110.807 16.2492 111.011 16.2815L114.345 16.8079C114.55 16.8402 114.742 16.7005 114.774 16.4959C114.806 16.2914 114.667 16.0993 114.462 16.067L111.499 15.5991L111.967 12.6359C111.999 12.4313 111.859 12.2393 111.655 12.207C111.45 12.1747 111.258 12.3143 111.226 12.5189L110.699 15.8526ZM187.654 62.2251C188.006 62.0962 188.006 62.0962 188.006 62.0962C188.006 62.0962 188.006 62.0961 188.006 62.0961C188.006 62.096 188.006 62.0959 188.006 62.0958C188.006 62.0955 188.006 62.0952 188.005 62.0947C188.005 62.0939 188.005 62.0926 188.004 62.091C188.003 62.0878 188.001 62.083 187.999 62.0768C187.994 62.0644 187.987 62.0462 187.978 62.0221C187.96 61.974 187.933 61.903 187.897 61.8099C187.826 61.6238 187.718 61.3499 187.574 60.9965C187.285 60.2898 186.851 59.2653 186.266 57.9904L185.584 58.3033C186.165 59.5677 186.595 60.5823 186.879 61.2799C187.022 61.6287 187.128 61.8982 187.198 62.08C187.233 62.1709 187.259 62.2399 187.276 62.2859C187.285 62.3089 187.291 62.3262 187.296 62.3376C187.298 62.3432 187.299 62.3475 187.3 62.3502C187.301 62.3516 187.301 62.3526 187.301 62.3532C187.301 62.3535 187.302 62.3537 187.302 62.3539C187.302 62.3539 187.302 62.354 187.302 62.354C187.302 62.354 187.302 62.354 187.302 62.354C187.302 62.354 187.302 62.3539 187.654 62.2251ZM183.793 52.9908C182.571 50.6815 181.073 48.0615 179.289 45.2877L178.658 45.6934C180.43 48.4473 181.917 51.0487 183.13 53.3416L183.793 52.9908ZM176.149 40.6889C174.479 38.385 172.623 36.0367 170.575 33.7235L170.013 34.2208C172.044 36.5138 173.885 38.8427 175.542 41.129L176.149 40.6889ZM166.737 29.6723C164.66 27.6267 162.42 25.6488 160.013 23.7992L159.556 24.394C161.937 26.2232 164.154 28.1805 166.211 30.2067L166.737 29.6723ZM155.444 20.588C154.199 19.7911 152.915 19.0317 151.591 18.3163L151.235 18.9761C152.541 19.6824 153.81 20.4324 155.04 21.2197L155.444 20.588ZM151.591 18.3163C150.26 17.5967 148.957 16.9447 147.682 16.3553L147.367 17.036C148.627 17.6188 149.917 18.2638 151.235 18.9761L151.591 18.3163ZM142.646 14.2862C139.643 13.2095 136.827 12.4836 134.208 12.0282L134.08 12.7671C136.655 13.215 139.43 13.9297 142.392 14.9922L142.646 14.2862ZM128.772 11.4311C125.423 11.2839 122.503 11.5765 120.048 12.0656L120.195 12.8011C122.594 12.3232 125.453 12.036 128.739 12.1804L128.772 11.4311ZM114.782 13.6009C113.502 14.1067 112.524 14.6047 111.863 14.9781C111.533 15.1648 111.282 15.3203 111.113 15.4301C111.028 15.485 110.963 15.5285 110.919 15.5587C110.897 15.5738 110.88 15.5856 110.869 15.5939C110.863 15.598 110.858 15.6012 110.855 15.6036C110.854 15.6047 110.852 15.6057 110.851 15.6064C110.851 15.6067 110.85 15.607 110.85 15.6073C110.85 15.6074 110.85 15.6075 110.85 15.6076C110.85 15.6076 110.849 15.6077 110.849 15.6077C110.849 15.6077 110.849 15.6078 111.07 15.9111C111.29 16.2143 111.29 16.2144 111.29 16.2144C111.29 16.2144 111.29 16.2145 111.29 16.2145C111.29 16.2145 111.29 16.2145 111.29 16.2145C111.29 16.2145 111.29 16.2145 111.29 16.2144C111.291 16.2141 111.291 16.2137 111.292 16.213C111.294 16.2116 111.297 16.2093 111.302 16.2061C111.311 16.1998 111.325 16.1899 111.344 16.1767C111.383 16.1504 111.441 16.1108 111.52 16.0597C111.678 15.9577 111.916 15.8099 112.232 15.631C112.866 15.2731 113.813 14.7904 115.058 14.2984L114.782 13.6009ZM151.413 18.6462L151.77 17.9864L151.77 17.9864L151.413 18.6462ZM110.329 15.7941C110.264 16.2032 110.544 16.5873 110.953 16.6519L117.62 17.7046C118.029 17.7692 118.413 17.4899 118.478 17.0808C118.543 16.6716 118.263 16.2876 117.854 16.223L111.928 15.2872L112.863 9.36064C112.928 8.9515 112.649 8.56745 112.24 8.50285C111.83 8.43825 111.446 8.71755 111.382 9.1267L110.329 15.7941ZM187.654 62.2251C188.358 61.9674 188.358 61.9673 188.358 61.9673C188.358 61.9673 188.358 61.9672 188.358 61.9671C188.358 61.967 188.358 61.9669 188.358 61.9667C188.358 61.9664 188.358 61.966 188.357 61.9655C188.357 61.9645 188.357 61.9631 188.356 61.9614C188.355 61.9579 188.353 61.9529 188.35 61.9465C188.346 61.9336 188.339 61.9148 188.329 61.8902C188.311 61.8411 188.284 61.769 188.247 61.6749C188.175 61.4867 188.066 61.2105 187.921 60.8549C187.631 60.1436 187.194 59.1141 186.606 57.8339L185.243 58.4598C185.821 59.7189 186.249 60.7286 186.532 61.4216C186.674 61.7681 186.779 62.0354 186.848 62.215C186.883 62.3049 186.908 62.3728 186.925 62.4178C186.934 62.4403 186.94 62.457 186.944 62.4679C186.946 62.4733 186.947 62.4773 186.948 62.4798C186.949 62.4811 186.949 62.4819 186.949 62.4824C186.949 62.4827 186.949 62.4828 186.95 62.4829C186.95 62.4829 186.95 62.4829 186.95 62.4829C186.95 62.4829 186.95 62.4829 186.949 62.4829C186.949 62.4828 186.949 62.4828 187.654 62.2251ZM184.124 52.8154C182.898 50.498 181.395 47.8686 179.604 45.0848L178.343 45.8963C180.108 48.6402 181.589 51.2323 182.799 53.517L184.124 52.8154ZM176.452 40.4689C174.776 38.1561 172.913 35.7982 170.855 33.4749L169.732 34.4694C171.754 36.7523 173.587 39.0716 175.238 41.3491L176.452 40.4689ZM167 29.4052C164.914 27.3497 162.662 25.3616 160.241 23.5018L159.327 24.6913C161.695 26.5103 163.901 28.4574 165.948 30.4738L167 29.4052ZM155.647 20.2721C154.394 19.4705 153.101 18.7064 151.77 17.9864L151.056 19.306C152.355 20.0078 153.615 20.7531 154.838 21.5356L155.647 20.2721ZM151.77 17.9864C150.432 17.2632 149.121 16.6077 147.839 16.0149L147.21 17.3764C148.463 17.9558 149.745 18.5973 151.056 19.306L151.77 17.9864ZM142.772 13.9332C139.75 12.8494 136.913 12.1179 134.273 11.6588L134.016 13.1366C136.569 13.5807 139.323 14.2898 142.266 15.3452L142.772 13.9332ZM128.788 11.0564C125.407 10.9079 122.458 11.2032 119.975 11.6978L120.268 13.1689C122.639 12.6966 125.468 12.412 128.723 12.555L128.788 11.0564ZM114.644 13.2521C113.347 13.7649 112.353 14.2706 111.679 14.6516C111.342 14.8422 111.084 15.0016 110.909 15.1153C110.821 15.1721 110.754 15.2175 110.707 15.2497C110.683 15.2658 110.665 15.2785 110.652 15.2877C110.646 15.2923 110.64 15.2961 110.637 15.2989C110.635 15.3003 110.633 15.3014 110.632 15.3024C110.631 15.3029 110.63 15.3033 110.63 15.3036C110.63 15.3038 110.629 15.304 110.629 15.3041C110.629 15.3042 110.629 15.3043 110.629 15.3043C110.629 15.3044 110.629 15.3045 111.07 15.9111C111.511 16.5176 111.511 16.5177 111.511 16.5178C111.511 16.5178 111.511 16.5179 111.511 16.5179C111.51 16.518 111.51 16.5181 111.51 16.5182C111.51 16.5183 111.51 16.5183 111.51 16.5183C111.51 16.5184 111.51 16.5181 111.511 16.5177C111.512 16.5168 111.515 16.515 111.518 16.5123C111.526 16.5069 111.539 16.498 111.557 16.4858C111.592 16.4613 111.648 16.4236 111.724 16.3745C111.876 16.2764 112.107 16.1325 112.417 15.9574C113.037 15.6072 113.968 15.1322 115.195 14.6471L114.644 13.2521Z" fill="#2A3795" />
  <path d="M139.414 239.322C139.413 239.529 139.579 239.698 139.786 239.7L143.161 239.725C143.368 239.726 143.538 239.559 143.539 239.352C143.541 239.145 143.374 238.976 143.167 238.975L140.167 238.952L140.189 235.953C140.191 235.745 140.024 235.576 139.817 235.575C139.61 235.573 139.441 235.74 139.439 235.947L139.414 239.322ZM187.654 72.4819C187.329 72.6685 187.329 72.6684 187.329 72.6684C187.329 72.6684 187.329 72.6684 187.329 72.6684C187.329 72.6684 187.329 72.6684 187.329 72.6684C187.329 72.6685 187.329 72.6686 187.329 72.6689C187.329 72.6693 187.33 72.67 187.33 72.6711C187.331 72.6733 187.333 72.6767 187.336 72.6813C187.341 72.6907 187.349 72.7051 187.36 72.7245C187.382 72.7633 187.414 72.8222 187.456 72.901C187.54 73.0586 187.664 73.2959 187.821 73.6115C188.135 74.2427 188.58 75.1871 189.101 76.4341L189.793 76.1449C189.265 74.8821 188.814 73.9228 188.493 73.2776C188.333 72.9551 188.205 72.711 188.117 72.5469C188.073 72.4648 188.039 72.4027 188.016 72.3607C188.004 72.3397 187.995 72.3238 187.989 72.3129C187.986 72.3074 187.984 72.3033 187.982 72.3003C187.981 72.2989 187.981 72.2977 187.98 72.2969C187.98 72.2965 187.98 72.2962 187.98 72.2959C187.979 72.2958 187.979 72.2957 187.979 72.2956C187.979 72.2956 187.979 72.2955 187.979 72.2955C187.979 72.2954 187.979 72.2954 187.654 72.4819ZM190.939 81.3706C191.696 83.6497 192.479 86.3603 193.192 89.4829L193.923 89.3161C193.205 86.1689 192.415 83.4352 191.651 81.1344L190.939 81.3706ZM194.225 94.6446C194.671 97.2205 195.052 100.009 195.33 103.003L196.077 102.933C195.796 99.9194 195.413 97.1115 194.964 94.5168L194.225 94.6446ZM195.696 108.264C195.821 110.935 195.861 113.745 195.794 116.688L196.544 116.705C196.611 113.744 196.571 110.917 196.446 108.229L195.696 108.264ZM195.564 121.956C195.391 124.657 195.127 127.459 194.758 130.357L195.502 130.452C195.873 127.538 196.138 124.721 196.313 122.004L195.564 121.956ZM193.994 135.576C193.55 138.264 193.015 141.028 192.38 143.865L193.112 144.029C193.75 141.178 194.287 138.4 194.734 135.699L193.994 135.576ZM191.143 148.984C190.795 150.329 190.424 151.689 190.029 153.064L190.75 153.271C191.146 151.89 191.519 150.523 191.869 149.172L191.143 148.984ZM190.029 153.064C189.672 154.311 189.301 155.548 188.918 156.776L189.634 156.999C190.019 155.766 190.391 154.523 190.75 153.271L190.029 153.064ZM187.413 161.373C186.568 163.839 185.676 166.262 184.745 168.643L185.444 168.916C186.379 166.526 187.274 164.092 188.123 161.617L187.413 161.373ZM182.925 173.126C181.911 175.533 180.861 177.89 179.781 180.196L180.461 180.514C181.544 178.2 182.599 175.833 183.616 173.417L182.925 173.126ZM177.677 184.556C176.509 186.905 175.315 189.195 174.104 191.422L174.763 191.78C175.978 189.545 177.176 187.247 178.348 184.89L177.677 184.556ZM171.745 195.649C170.433 197.942 169.108 200.161 167.784 202.301L168.422 202.696C169.751 200.548 171.079 198.322 172.396 196.021L171.745 195.649ZM165.191 206.396C163.737 208.64 162.291 210.786 160.871 212.829L161.487 213.257C162.912 211.208 164.361 209.055 165.82 206.804L165.191 206.396ZM158.065 216.778C156.461 218.986 154.905 221.049 153.422 222.958L154.014 223.418C155.502 221.503 157.063 219.433 158.672 217.218L158.065 216.778ZM150.402 226.759C148.562 229.025 146.883 231.003 145.424 232.671L145.989 233.165C147.454 231.49 149.139 229.506 150.984 227.232L150.402 226.759ZM142.178 236.284C141.335 237.195 140.671 237.889 140.218 238.356C139.992 238.589 139.818 238.765 139.702 238.882C139.643 238.941 139.599 238.985 139.57 239.014C139.555 239.029 139.544 239.04 139.537 239.047C139.533 239.051 139.53 239.053 139.528 239.055C139.528 239.056 139.527 239.057 139.527 239.057C139.526 239.057 139.526 239.057 139.526 239.057C139.526 239.058 139.526 239.058 139.526 239.058C139.526 239.058 139.526 239.058 139.526 239.058C139.526 239.058 139.526 239.058 139.789 239.325C140.052 239.592 140.052 239.592 140.052 239.592C140.052 239.592 140.052 239.592 140.052 239.592C140.053 239.592 140.053 239.592 140.053 239.592C140.053 239.591 140.053 239.591 140.053 239.591C140.054 239.59 140.055 239.59 140.056 239.589C140.058 239.587 140.061 239.584 140.064 239.58C140.072 239.572 140.084 239.561 140.099 239.546C140.129 239.515 140.174 239.47 140.234 239.411C140.352 239.291 140.528 239.113 140.756 238.878C141.213 238.408 141.881 237.709 142.729 236.793L142.178 236.284ZM139.039 239.319C139.036 239.733 139.369 240.072 139.784 240.075L146.533 240.124C146.948 240.127 147.286 239.794 147.289 239.38C147.292 238.966 146.959 238.627 146.545 238.624L140.545 238.58L140.589 232.58C140.592 232.166 140.259 231.828 139.844 231.825C139.43 231.822 139.092 232.155 139.089 232.569L139.039 239.319ZM187.654 72.4819C187.003 72.855 187.003 72.855 187.003 72.8549C187.003 72.8549 187.003 72.8548 187.003 72.8548C187.003 72.8547 187.003 72.8547 187.003 72.8547C187.003 72.8546 187.003 72.8547 187.003 72.8548C187.003 72.8551 187.004 72.8556 187.004 72.8565C187.005 72.8583 187.007 72.8613 187.009 72.8656C187.014 72.8741 187.022 72.8877 187.032 72.9063C187.053 72.9436 187.084 73.0008 187.125 73.078C187.208 73.2324 187.33 73.4663 187.486 73.7784C187.796 74.4026 188.237 75.3396 188.755 76.5788L190.139 76.0002C189.608 74.7296 189.153 73.7628 188.829 73.1107C188.667 72.7847 188.537 72.5373 188.448 72.3698C188.403 72.2861 188.368 72.2224 188.344 72.1789C188.332 72.1571 188.322 72.1403 188.316 72.1287C188.312 72.1228 188.31 72.1183 188.308 72.115C188.307 72.1133 188.306 72.112 188.306 72.1109C188.305 72.1104 188.305 72.11 188.305 72.1097C188.305 72.1095 188.305 72.1093 188.305 72.1092C188.305 72.1091 188.305 72.109 188.305 72.109C188.305 72.1089 188.305 72.1088 187.654 72.4819ZM190.583 81.4887C191.336 83.757 192.117 86.456 192.826 89.5664L194.289 89.2326C193.568 86.0732 192.774 83.3279 192.007 81.0163L190.583 81.4887ZM193.856 94.7086C194.299 97.275 194.679 100.054 194.957 103.037L196.45 102.898C196.169 99.8746 195.784 97.057 195.334 94.4529L193.856 94.7086ZM195.322 108.281C195.446 110.944 195.486 113.745 195.419 116.679L196.919 116.714C196.986 113.744 196.946 110.908 196.82 108.211L195.322 108.281ZM195.19 121.932C195.017 124.625 194.754 127.419 194.386 130.31L195.874 130.499C196.246 127.577 196.512 124.752 196.687 122.028L195.19 121.932ZM193.624 135.515C193.181 138.196 192.647 140.953 192.014 143.783L193.478 144.111C194.117 141.253 194.656 138.468 195.104 135.76L193.624 135.515ZM190.78 148.89C190.433 150.232 190.062 151.589 189.669 152.961L191.111 153.374C191.508 151.99 191.881 150.62 192.232 149.266L190.78 148.89ZM189.669 152.961C189.312 154.204 188.942 155.439 188.56 156.664L189.992 157.111C190.377 155.875 190.751 154.629 191.111 153.374L189.669 152.961ZM187.058 161.252C186.215 163.712 185.325 166.131 184.396 168.506L185.793 169.052C186.73 166.658 187.627 164.219 188.477 161.738L187.058 161.252ZM182.579 172.981C181.568 175.382 180.519 177.736 179.442 180.037L180.8 180.673C181.886 178.354 182.942 175.983 183.961 173.563L182.579 172.981ZM177.341 184.389C176.175 186.734 174.983 189.019 173.775 191.243L175.092 191.959C176.309 189.72 177.51 187.419 178.684 185.057L177.341 184.389ZM171.42 195.462C170.11 197.752 168.787 199.967 167.465 202.104L168.741 202.893C170.072 200.742 171.403 198.512 172.722 196.208L171.42 195.462ZM164.876 206.192C163.424 208.433 161.981 210.576 160.563 212.615L161.795 213.471C163.222 211.419 164.674 209.263 166.135 207.008L164.876 206.192ZM157.761 216.557C156.16 218.762 154.607 220.822 153.125 222.728L154.31 223.648C155.801 221.73 157.364 219.657 158.975 217.439L157.761 216.557ZM150.111 226.523C148.274 228.785 146.598 230.759 145.142 232.425L146.271 233.412C147.739 231.734 149.427 229.746 151.275 227.468L150.111 226.523ZM141.903 236.029C141.062 236.938 140.4 237.63 139.949 238.094C139.724 238.326 139.551 238.501 139.436 238.618C139.378 238.676 139.334 238.72 139.305 238.748C139.291 238.763 139.28 238.774 139.273 238.781C139.269 238.784 139.267 238.787 139.265 238.788C139.264 238.789 139.264 238.79 139.263 238.79C139.263 238.79 139.263 238.79 139.263 238.79C139.263 238.791 139.263 238.791 139.263 238.791L139.263 238.791C139.263 238.79 139.263 238.79 139.789 239.325C140.316 239.859 140.316 239.859 140.316 239.859C140.316 239.859 140.316 239.859 140.316 239.859C140.316 239.859 140.316 239.859 140.316 239.859C140.316 239.858 140.316 239.858 140.317 239.858C140.317 239.857 140.318 239.856 140.319 239.855C140.321 239.853 140.324 239.85 140.328 239.846C140.336 239.838 140.348 239.827 140.364 239.811C140.394 239.781 140.44 239.735 140.5 239.675C140.619 239.554 140.796 239.375 141.025 239.139C141.484 238.667 142.154 237.966 143.004 237.048L141.903 236.029Z" fill="#2A3795" />
  <path d="M225.946 80.2502L226.185 79.9611L225.946 80.2502ZM240.707 103.745C240.843 103.901 241.08 103.916 241.236 103.78L243.776 101.557C243.931 101.421 243.947 101.184 243.811 101.028C243.674 100.872 243.437 100.857 243.282 100.993L241.024 102.969L239.048 100.711C238.912 100.555 238.675 100.539 238.519 100.676C238.363 100.812 238.348 101.049 238.484 101.205L240.707 103.745ZM192.44 68.3788C192.464 68.7531 192.464 68.7531 192.464 68.7531C192.464 68.7531 192.464 68.7531 192.464 68.7531C192.464 68.7531 192.464 68.7531 192.464 68.7531C192.464 68.7531 192.464 68.7531 192.464 68.7531C192.465 68.7531 192.465 68.753 192.467 68.7529C192.469 68.7528 192.472 68.7526 192.477 68.7523C192.487 68.7518 192.502 68.751 192.522 68.75C192.563 68.748 192.624 68.7453 192.705 68.7424C192.868 68.7368 193.11 68.7309 193.424 68.7298C194.053 68.7275 194.973 68.7445 196.131 68.8218L196.181 68.0734C195.004 67.9949 194.067 67.9775 193.421 67.9798C193.099 67.9809 192.849 67.987 192.68 67.9929C192.595 67.9958 192.53 67.9987 192.486 68.0009C192.464 68.0019 192.447 68.0028 192.435 68.0035C192.429 68.0038 192.425 68.0041 192.422 68.0043C192.42 68.0044 192.419 68.0044 192.418 68.0045C192.418 68.0045 192.417 68.0045 192.417 68.0046C192.417 68.0046 192.417 68.0046 192.417 68.0046C192.417 68.0046 192.417 68.0046 192.417 68.0046C192.417 68.0046 192.417 68.0046 192.44 68.3788ZM200.713 69.3462C202.842 69.6874 205.28 70.2119 207.906 71.0139L208.125 70.2966C205.463 69.4834 202.99 68.9517 200.832 68.6056L200.713 69.3462ZM212.261 72.5529C214.418 73.4226 216.647 74.488 218.892 75.7923L219.269 75.1438C216.991 73.8203 214.729 72.7395 212.542 71.8574L212.261 72.5529ZM222.776 78.2926C223.758 78.9898 224.736 79.7375 225.707 80.5393L226.185 79.9611C225.2 79.1474 224.207 78.3886 223.211 77.6811L222.776 78.2926ZM225.707 80.5393C226.89 81.5167 227.979 82.478 228.982 83.4201L229.495 82.8735C228.481 81.9202 227.38 80.9483 226.185 79.9611L225.707 80.5393ZM232.76 87.3163C235.022 89.897 236.633 92.273 237.781 94.3627L238.439 94.0016C237.263 91.8622 235.62 89.4417 233.324 86.822L232.76 87.3163ZM239.91 99.3136C240.315 100.645 240.491 101.695 240.565 102.406C240.603 102.762 240.615 103.034 240.617 103.214C240.619 103.304 240.618 103.371 240.617 103.415C240.616 103.436 240.616 103.452 240.615 103.462C240.615 103.467 240.615 103.47 240.615 103.472C240.615 103.473 240.615 103.473 240.615 103.474C240.615 103.474 240.615 103.474 240.615 103.474C240.615 103.473 240.615 103.473 240.615 103.473C240.615 103.473 240.615 103.473 240.615 103.473C240.615 103.473 240.615 103.473 240.989 103.498C241.363 103.523 241.363 103.523 241.363 103.522C241.363 103.522 241.363 103.522 241.363 103.522C241.363 103.522 241.363 103.522 241.363 103.522C241.363 103.521 241.363 103.52 241.363 103.52C241.363 103.518 241.363 103.517 241.363 103.514C241.364 103.51 241.364 103.504 241.364 103.497C241.365 103.482 241.366 103.461 241.367 103.434C241.368 103.381 241.369 103.303 241.367 103.202C241.364 103.001 241.351 102.707 241.311 102.328C241.232 101.571 241.047 100.474 240.627 99.095L239.91 99.3136ZM225.946 80.2502L226.424 79.672L225.946 80.2502ZM240.424 103.992C240.697 104.303 241.171 104.335 241.483 104.062L246.562 99.617C246.874 99.3442 246.906 98.8704 246.633 98.5587C246.36 98.2469 245.886 98.2154 245.574 98.4882L241.059 102.439L237.108 97.9243C236.835 97.6126 236.361 97.581 236.05 97.8538C235.738 98.1266 235.706 98.6004 235.979 98.9121L240.424 103.992ZM192.44 68.3788C192.487 69.1274 192.487 69.1274 192.487 69.1274C192.487 69.1274 192.487 69.1274 192.487 69.1274C192.487 69.1274 192.487 69.1274 192.487 69.1274C192.487 69.1274 192.487 69.1274 192.487 69.1274C192.487 69.1274 192.488 69.1273 192.489 69.1273C192.491 69.1272 192.494 69.127 192.498 69.1267C192.507 69.1262 192.521 69.1255 192.541 69.1245C192.58 69.1226 192.639 69.12 192.718 69.1172C192.877 69.1118 193.115 69.1059 193.425 69.1048C194.047 69.1025 194.958 69.1193 196.106 69.1959L196.206 67.6993C195.02 67.6201 194.073 67.6024 193.42 67.6048C193.093 67.606 192.84 67.6121 192.667 67.6181C192.58 67.6211 192.513 67.6241 192.467 67.6263C192.444 67.6274 192.427 67.6284 192.414 67.6291C192.408 67.6294 192.403 67.6297 192.4 67.6299C192.398 67.63 192.396 67.6301 192.395 67.6302C192.395 67.6302 192.394 67.6303 192.394 67.6303C192.394 67.6303 192.394 67.6303 192.393 67.6303C192.393 67.6303 192.393 67.6303 192.393 67.6303C192.393 67.6303 192.393 67.6303 192.44 68.3788ZM200.654 69.7164C202.767 70.0553 205.189 70.5761 207.797 71.3725L208.235 69.9379C205.554 69.1192 203.065 68.5838 200.891 68.2354L200.654 69.7164ZM212.121 72.9007C214.262 73.7642 216.475 74.8218 218.703 76.1166L219.457 74.8196C217.162 73.4864 214.885 72.3979 212.682 71.5096L212.121 72.9007ZM222.559 78.5983C223.534 79.2903 224.505 80.0325 225.468 80.8284L226.424 79.672C225.431 78.8524 224.431 78.0881 223.428 77.3754L222.559 78.5983ZM225.468 80.8284C226.645 81.8008 227.728 82.7569 228.725 83.6934L229.752 82.6002C228.732 81.6412 227.624 80.6641 226.424 79.672L225.468 80.8284ZM232.478 87.5635C234.723 90.1246 236.318 92.4784 237.452 94.5432L238.767 93.8211C237.578 91.6568 235.919 89.2141 233.606 86.5748L232.478 87.5635ZM239.551 99.4229C239.949 100.73 240.12 101.757 240.192 102.445C240.228 102.79 240.24 103.051 240.242 103.22C240.244 103.305 240.243 103.367 240.242 103.405C240.241 103.424 240.241 103.437 240.241 103.444C240.24 103.448 240.24 103.45 240.24 103.451C240.24 103.451 240.24 103.451 240.24 103.451C240.24 103.45 240.24 103.45 240.24 103.45C240.24 103.449 240.24 103.449 240.24 103.449C240.24 103.449 240.24 103.448 240.24 103.448C240.24 103.448 240.24 103.448 240.989 103.498C241.737 103.548 241.737 103.547 241.737 103.547C241.737 103.547 241.737 103.547 241.737 103.547C241.737 103.546 241.737 103.546 241.737 103.546C241.737 103.545 241.737 103.544 241.737 103.543C241.738 103.541 241.738 103.538 241.738 103.536C241.738 103.53 241.739 103.523 241.739 103.514C241.74 103.497 241.741 103.474 241.741 103.444C241.743 103.385 241.744 103.302 241.742 103.196C241.739 102.984 241.725 102.679 241.684 102.289C241.603 101.509 241.413 100.389 240.986 98.9857L239.551 99.4229Z" fill="#2A3795" />
</svg>