<?xml version="1.0" encoding="UTF-8"?>
<svg xmlns="http://www.w3.org/2000/svg" viewBox="0 0 387.4 283">
  <defs>
    <style>
      .cls-2 {
        fill: #177a3d
      }

      .cls-1 {
        opacity: .5
      }

      .cls-3 {
        fill: #d4ffec
      }

      .cls-4 {
        fill: #3aa96c
      }

      .cls-5 {
        fill: #93ce57
      }

      .cls-7 {
        fill: #fff
      }

      .cls-8 {
        fill: #ea9c92
      }

      .cls-9 {
        fill: #fe9e1f
      }

    </style>
  </defs>
  <g id="Layer_2" data-name="Layer 2">
    <g id="Layer_1" data-name="Layer 1">
      <path d="M243.2 172.4v-13h-29l-10-5.7c-2.2-1.3-6.2-1.2-9 .4l-9.2 5.3h-29v13.3a2.6 2.6 0 001.5 2.4l37.5 21.6c2.3 1.3 6.3 1.1 9-.4l36-20.9c1.6-.8 2.3-2 2.2-3z" class="cls-4" />
      <path d="M200.1 152.8a10.2 10.2 0 00-4.8 1.2l-9.3 5.4h-29v13.3a2.6 2.6 0 001.5 2.4l37.5 21.6a8 8 0 004.2.9z" class="cls-4" />
      <path d="M160.3 159.4H157v13.3a2.6 2.6 0 001.5 2.4l1.8 1zM196.5 197a10.2 10.2 0 007.2 0v-15.2h-7.2z" class="cls-5" />
      <path d="M196 183.4L158.6 162c-2.3-1.4-2-3.7.7-5.2l36-20.9c2.7-1.5 6.7-1.7 9-.3l37.5 21.6c2.3 1.3 2 3.6-.7 5.1l-36 20.9c-2.8 1.5-6.8 1.7-9.1.3z" class="cls-3" />
      <path d="M196.6 179.6l-31.3-18.1c-2-1.1-1.7-3 .5-4.4l30.3-17.4c2.2-1.3 5.6-1.5 7.5-.4l31.3 18.1c2 1.2 1.7 3.1-.5 4.4l-30.3 17.4a8.3 8.3 0 01-7.5.4z" class="cls-5" />
      <path d="M229.4 175.8a3.4 3.4 0 01-1.5 2.6c-.8.5-1.5 0-1.5-.9a3.3 3.3 0 011.5-2.6c.9-.5 1.5 0 1.5.9zM234.3 173a3.3 3.3 0 01-1.5 2.6c-.8.5-1.5.1-1.5-.8a3.3 3.3 0 011.5-2.7c.8-.5 1.5-.1 1.5.9zM239.2 170.2a3.3 3.3 0 01-1.5 2.6c-.9.4-1.5 0-1.5-.9a3.4 3.4 0 011.5-2.6c.8-.5 1.5-.1 1.5.9z" class="cls-3" />
      <path d="M243.2 151.7v-12.9h-29l-10-5.7c-2.2-1.4-6.2-1.2-9 .3l-9.2 5.4h-29v13.3a2.6 2.6 0 001.5 2.4L196 176c2.3 1.3 6.3 1.1 9-.4l36-20.9c1.6-.8 2.3-2 2.2-3z" class="cls-4" />
      <path d="M200.1 132.2a10.2 10.2 0 00-4.8 1.2l-9.3 5.4h-29v13.3a2.6 2.6 0 001.5 2.4L196 176a8 8 0 004.2.8z" class="cls-4" />
      <path d="M160.3 138.8H157V152a2.6 2.6 0 001.5 2.4l1.8 1zM196.5 176.3a10.2 10.2 0 007.2 0v-15.1h-7.2z" class="cls-5" />
      <path d="M196 162.8l-37.4-21.6c-2.3-1.3-2-3.6.7-5.1l36-20.9c2.7-1.5 6.7-1.7 9-.3l37.5 21.5c2.3 1.4 2 3.7-.7 5.2l-36 20.9c-2.8 1.5-6.8 1.7-9.1.3z" class="cls-3" />
      <path d="M196.6 159l-31.3-18.2c-2-1-1.7-3 .5-4.3l30.3-17.5c2.2-1.3 5.6-1.4 7.5-.3l31.3 18c2 1.2 1.7 3-.5 4.4l-30.3 17.5a8.4 8.4 0 01-7.5.3z" class="cls-5" />
      <path d="M229.4 155.2a3.3 3.3 0 01-1.5 2.6c-.8.5-1.5 0-1.5-1a3.3 3.3 0 011.5-2.5c.9-.5 1.5-.1 1.5.8zM234.3 152.3a3.3 3.3 0 01-1.5 2.7c-.8.5-1.5 0-1.5-.9a3.3 3.3 0 011.5-2.6c.8-.5 1.5-.1 1.5.8zM239.2 149.5a3.3 3.3 0 01-1.5 2.6c-.9.5-1.5.1-1.5-.8a3.4 3.4 0 011.5-2.6c.8-.5 1.5-.1 1.5.8z" class="cls-3" />
      <path d="M243.2 131.1v-12.9h-29l-10-5.8c-2.2-1.3-6.2-1.1-9 .4l-9.2 5.4h-29v13.3a2.6 2.6 0 001.5 2.4l37.5 21.5c2.3 1.4 6.3 1.2 9-.3l36-20.9c1.6-.9 2.3-2 2.2-3z" class="cls-4" />
      <path d="M200.1 111.5a10.2 10.2 0 00-4.8 1.3l-9.3 5.4h-29v13.3a2.6 2.6 0 001.5 2.4l37.5 21.5a8 8 0 004.2 1z" class="cls-4" />
      <path d="M160.3 118.2H157v13.2a2.6 2.6 0 001.5 2.4l1.8 1zM196.5 155.7a10.2 10.2 0 007.2 0v-15.1h-7.2z" class="cls-5" />
      <path d="M196 142.2l-37.4-21.6c-2.3-1.3-2-3.6.7-5.1l36-20.9c2.7-1.5 6.7-1.7 9-.4l37.4 21.6c2.3 1.3 2 3.7-.6 5.2L205 141.8c-2.7 1.6-6.7 1.7-9 .4z" class="cls-3" />
      <path d="M196.6 138.3l-31.3-18c-2-1.2-1.7-3 .5-4.4l30.3-17.5c2.2-1.3 5.6-1.4 7.5-.3l31.3 18.1c2 1.1 1.7 3-.5 4.3L204.1 138a8.4 8.4 0 01-7.5.3z" class="cls-5" />
      <path d="M229.4 134.5a3.3 3.3 0 01-1.5 2.6c-.8.5-1.5.1-1.5-.8a3.4 3.4 0 011.5-2.7c.9-.4 1.5 0 1.5 1zM234.3 131.7a3.4 3.4 0 01-1.5 2.6c-.8.5-1.5.1-1.5-.8a3.3 3.3 0 011.5-2.6c.8-.5 1.5-.1 1.5.8zM239.2 129a3.3 3.3 0 01-1.5 2.5c-.9.5-1.5.1-1.5-.8a3.3 3.3 0 011.5-2.7c.8-.4 1.5 0 1.5 1z" class="cls-3" />
      <path d="M243.2 110.5v-13h-29l-10-5.7c-2.2-1.3-6.2-1.1-9 .4l-9.2 5.4h-29v13.2a2.6 2.6 0 001.5 2.4l37.5 21.6c2.3 1.3 6.3 1.2 9-.4l36-20.8c1.6-.9 2.3-2 2.2-3.1z" class="cls-4" />
      <path d="M200.1 91a10.2 10.2 0 00-4.8 1.2l-9.3 5.4h-29v13.2a2.6 2.6 0 001.5 2.4l37.5 21.6a8.2 8.2 0 004.2.9z" class="cls-4" />
      <path d="M160.3 97.5H157v13.3a2.6 2.6 0 001.5 2.4l1.8 1zM196.5 135a10.2 10.2 0 007.2 0v-15h-7.2z" class="cls-5" />
      <path d="M196 121.6L158.6 100c-2.3-1.3-2-3.6.6-5.2L195.3 74a10 10 0 019-.4l37.4 21.6c2.3 1.3 2 3.7-.6 5.2L205 121.2c-2.7 1.5-6.7 1.7-9 .4z" class="cls-3" />
      <path d="M196.6 117.7l-31.3-18.1c-2-1.1-1.7-3 .5-4.3l30.3-17.5c2.2-1.3 5.6-1.4 7.5-.3l31.3 18c2 1.2 1.7 3-.5 4.4l-30.3 17.5a8.4 8.4 0 01-7.5.3z" class="cls-5" />
      <path d="M229.4 113.9a3.3 3.3 0 01-1.5 2.6c-.8.5-1.5.1-1.5-.8a3.3 3.3 0 011.5-2.7c.9-.5 1.5 0 1.5.9zM234.3 111.1a3.3 3.3 0 01-1.5 2.6c-.8.5-1.5.1-1.5-.9a3.3 3.3 0 011.5-2.6c.8-.5 1.5 0 1.5.9zM239.2 108.3a3.3 3.3 0 01-1.5 2.6c-.9.5-1.5.1-1.5-.9a3.3 3.3 0 011.5-2.6c.8-.5 1.5 0 1.5.9z" class="cls-3" />
      <path d="M243.2 89.9V77h-29l-10-5.8c-2.2-1.3-6.2-1.1-9 .4l-9.2 5.3h-29v13.3a2.6 2.6 0 001.5 2.4l37.5 21.6c2.3 1.3 6.3 1.1 9-.4L241 93c1.6-1 2.3-2 2.2-3.1z" class="cls-4" />
      <path d="M200.1 70.3a10.5 10.5 0 00-4.8 1.3l-9.3 5.3h-29v13.3a2.6 2.6 0 001.5 2.4l37.5 21.6a8.3 8.3 0 004.2.9z" class="cls-2" />
      <path d="M160.3 77H157v13.2a2.6 2.6 0 001.5 2.4l1.8 1zM196.5 114.5a10.2 10.2 0 007.2-.1v-15h-7.2z" class="cls-5" />
      <path d="M196 101l-37.4-21.6c-2.3-1.3-2-3.6.7-5.2l36-20.8a10 10 0 019-.4l37.5 21.6c2.3 1.3 2 3.7-.7 5.2l-36 20.8c-2.8 1.5-6.8 1.7-9.1.4z" class="cls-3" />
      <path d="M196.6 97l-31.3-18c-2-1.1-1.7-3 .5-4.3l30.3-17.5c2.2-1.3 5.6-1.4 7.5-.3L234.9 75c2 1.1 1.7 3-.5 4.3l-30.3 17.5a8.4 8.4 0 01-7.5.3z" class="cls-5" />
      <path d="M211.9 98.3h17.3v.6h-17.3z" class="cls-7" transform="rotate(-30 220.5 98.7)" />
      <path d="M229.4 93.3a3.3 3.3 0 01-1.5 2.6c-.8.5-1.5 0-1.5-.9a3.3 3.3 0 011.5-2.6c.9-.5 1.5 0 1.5.9zM234.3 90.5a3.3 3.3 0 01-1.5 2.6c-.8.5-1.5 0-1.5-.9a3.4 3.4 0 011.5-2.6c.8-.5 1.5 0 1.5.9zM239.2 87.7a3.3 3.3 0 01-1.5 2.6c-.9.5-1.5 0-1.5-.9a3.3 3.3 0 011.5-2.6c.8-.5 1.5 0 1.5.9z" class="cls-3" />
      <path d="M243.2 69.1V56.2h-29l-10-5.8c-2.2-1.3-6.2-1.1-9 .4l-9.2 5.4h-29v13.2a2.6 2.6 0 001.5 2.4L196 93.4c2.3 1.3 6.3 1.2 9-.4l36-20.8c1.6-.9 2.3-2 2.2-3z" class="cls-4" />
      <path d="M200.1 49.5a10.4 10.4 0 00-4.8 1.3l-9.3 5.4h-29v13.2a2.6 2.6 0 001.5 2.4L196 93.4a8 8 0 004.2 1z" class="cls-2" />
      <path d="M160.3 56.2H157v13.2a2.6 2.6 0 001.5 2.4l1.8 1zM196.5 93.7a10.2 10.2 0 007.2 0V78.5h-7.2z" class="cls-5" />
      <path d="M196 80.2l-37.4-21.6c-2.3-1.3-2-3.6.7-5.2l36-20.8c2.7-1.5 6.7-1.7 9-.4l37.5 21.6c2.3 1.3 2 3.7-.7 5.2L205 79.8c-2.6 1.6-6.6 1.7-8.9.4z" class="cls-3" />
      <path d="M241 56.4l-36 20.9c-2.7 1.5-6.7 1.7-9 .4L158.4 56a3.4 3.4 0 01-1.1-1c-.8 1.2-.5 2.6 1.1 3.5L196 80.2c2.3 1.3 6.3 1.2 9-.4L241 59c2-1.2 2.7-2.9 1.8-4.2a5 5 0 01-1.8 1.6z" class="cls-7" />
      <path d="M229.4 72.5a3.4 3.4 0 01-1.5 2.6c-.8.5-1.5.1-1.5-.8a3.3 3.3 0 011.5-2.6c.9-.5 1.5-.1 1.5.8zM214.6 80.7a3.4 3.4 0 01-1.5 2.6c-.9.5-1.5.1-1.5-.8a3.3 3.3 0 011.5-2.7c.8-.5 1.5 0 1.5.9z" class="cls-3" />
      <path d="M214.6 102.1a3.4 3.4 0 01-1.5 2.6c-.9.5-1.5.1-1.5-.9a3.3 3.3 0 011.5-2.6c.8-.5 1.5 0 1.5.9z" class="cls-7" />
      <path d="M234.3 69.7a3.3 3.3 0 01-1.5 2.6c-.8.5-1.5.1-1.5-.8a3.3 3.3 0 011.5-2.7c.8-.4 1.5 0 1.5 1zM239.2 67a3.3 3.3 0 01-1.5 2.5c-.9.5-1.5.1-1.5-.9a3.3 3.3 0 011.5-2.6c.8-.5 1.5 0 1.5 1z" class="cls-3" />
      <path d="M198.2 66.8l-17.5-10c-1.1-.7-1-1.8.3-2.5l16.9-9.8a4.7 4.7 0 014.2-.1l17.5 10c1 .7.9 1.8-.3 2.5l-17 9.7a4.6 4.6 0 01-4.1.2z" class="cls-2" />
      <path d="M199.8 58.4l-2.4-1.4v-.3l2.4-1.4a.6.6 0 01.5 0l2.5 1.4v.3l-2.4 1.4a.6.6 0 01-.6 0z" class="cls-3" />
      <path d="M180.7 56.7a2.2 2.2 0 01.3-.2l16.9-9.7a4.6 4.6 0 014.2-.2l17.4 10c1-.6 1-1.6 0-2.2l-17.4-10a4.7 4.7 0 00-4.2.1L181 54.3c-1.3.7-1.4 1.8-.3 2.4z" class="cls-4" />
      <path d="M194.5 83.3c0 1-.7 1.4-1.6.9a3.5 3.5 0 01-1.6-2.8c0-1 .7-1.4 1.6-.9a3.5 3.5 0 011.6 2.8z" class="cls-3" />
      <path d="M189.6 80.4c0 1-.7 1.5-1.6 1a3.5 3.5 0 01-1.6-2.8c0-1 .7-1.4 1.6-1a3.5 3.5 0 011.6 2.8z" class="cls-5" />
      <path d="M194.5 89.2c0 1-.7 1.4-1.6 1a3.5 3.5 0 01-1.6-2.8c0-1 .7-1.4 1.6-1a3.5 3.5 0 011.6 2.8zM189.6 86.4c0 1-.7 1.4-1.6 1a3.5 3.5 0 01-1.6-2.9c0-1 .7-1.4 1.6-.9a3.5 3.5 0 011.6 2.8zM194.5 103.8c0 1-.7 1.4-1.6.9a3.5 3.5 0 01-1.6-2.8c0-1 .7-1.4 1.6-1a3.5 3.5 0 011.6 2.8zM189.6 101c0 1-.7 1.3-1.6.8a3.5 3.5 0 01-1.6-2.7c0-1 .7-1.4 1.6-1a3.5 3.5 0 011.6 2.8z" class="cls-3" />
      <path d="M194.5 109.7c0 1-.7 1.4-1.6 1a3.5 3.5 0 01-1.6-2.8c0-1 .7-1.5 1.6-1a3.5 3.5 0 011.6 2.8z" class="cls-5" />
      <path d="M189.6 106.9c0 1-.7 1.4-1.6.9a3.5 3.5 0 01-1.6-2.8c0-1 .7-1.4 1.6-.9a3.5 3.5 0 011.6 2.8zM194.5 124.3c0 1-.7 1.4-1.6.9a3.5 3.5 0 01-1.6-2.8c0-1 .7-1.4 1.6-.9a3.5 3.5 0 011.6 2.8z" class="cls-3" />
      <path d="M189.6 121.4c0 1-.7 1.4-1.6 1a3.5 3.5 0 01-1.6-2.8c0-1 .7-1.4 1.6-1a3.5 3.5 0 011.6 2.8z" class="cls-5" />
      <path d="M194.5 130.2c0 1-.7 1.4-1.6 1a3.5 3.5 0 01-1.6-2.8c0-1 .7-1.5 1.6-1a3.5 3.5 0 011.6 2.8z" class="cls-3" />
      <path d="M189.6 127.4c0 1-.7 1.4-1.6.9a3.5 3.5 0 01-1.6-2.8c0-1 .7-1.4 1.6-.9a3.5 3.5 0 011.6 2.8zM194.5 145c0 1-.7 1.4-1.6 1a3.5 3.5 0 01-1.6-2.8c0-1 .7-1.5 1.6-1a3.5 3.5 0 011.6 2.8z" class="cls-5" />
      <path d="M189.6 142.1c0 1-.7 1.5-1.6 1a3.5 3.5 0 01-1.6-2.8c0-1 .7-1.4 1.6-1a3.5 3.5 0 011.6 2.8zM194.5 151c0 1-.7 1.3-1.6.8a3.5 3.5 0 01-1.6-2.7c0-1 .7-1.4 1.6-1a3.5 3.5 0 011.6 2.8z" class="cls-3" />
      <path d="M189.6 148c0 1-.7 1.5-1.6 1a3.5 3.5 0 01-1.6-2.8c0-1 .7-1.4 1.6-.9a3.5 3.5 0 011.6 2.8zM194.5 165.5c0 1-.7 1.4-1.6.9a3.5 3.5 0 01-1.6-2.8c0-1 .7-1.4 1.6-.9a3.5 3.5 0 011.6 2.8z" class="cls-5" />
      <path d="M189.6 162.6c0 1-.7 1.5-1.6 1a3.5 3.5 0 01-1.6-2.8c0-1 .7-1.4 1.6-1a3.5 3.5 0 011.6 2.8z" class="cls-3" />
      <path d="M194.5 171.4c0 1-.7 1.5-1.6 1a3.5 3.5 0 01-1.6-2.8c0-1 .7-1.4 1.6-1a3.5 3.5 0 011.6 2.8z" class="cls-5" />
      <path d="M189.6 168.6c0 1-.7 1.4-1.6 1a3.5 3.5 0 01-1.6-2.8c0-1 .7-1.5 1.6-1a3.5 3.5 0 011.6 2.8zM194.5 186.2c0 1-.7 1.5-1.6 1a3.5 3.5 0 01-1.6-2.8c0-1 .7-1.4 1.6-1a3.5 3.5 0 011.6 2.8z" class="cls-3" />
      <path d="M189.6 183.4c0 1-.7 1.4-1.6 1a3.5 3.5 0 01-1.6-2.8c0-1 .7-1.5 1.6-1a3.5 3.5 0 011.6 2.8z" class="cls-5" />
      <path d="M194.5 192.2c0 1-.7 1.4-1.6 1a3.5 3.5 0 01-1.6-2.8c0-1 .7-1.5 1.6-1a3.5 3.5 0 011.6 2.8zM189.6 189.4c0 1-.7 1.4-1.6.9a3.5 3.5 0 01-1.6-2.8c0-1 .7-1.4 1.6-.9a3.5 3.5 0 011.6 2.8z" class="cls-3" />
      <path d="M302 206.2v-13h-29l-10-5.7c-2.2-1.3-6.2-1.2-8.9.4l-9.3 5.4h-29v13.2a2.6 2.6 0 001.5 2.4l37.4 21.6c2.3 1.3 6.3 1.2 9-.4l36.1-20.8c1.5-1 2.2-2 2.2-3.1z" class="cls-4" />
      <path d="M258.9 186.6a10.2 10.2 0 00-4.8 1.3l-9.4 5.3h-29v13.3a2.6 2.6 0 001.6 2.4l37.4 21.6a8 8 0 004.1.9z" class="cls-2" />
      <path d="M219 193.2h-3.2v13.3a2.6 2.6 0 001.5 2.4l1.7 1zM255.3 230.8a10.2 10.2 0 007.1-.1v-15h-7.1z" class="cls-5" />
      <path d="M254.7 217.3l-37.4-21.6c-2.3-1.3-2-3.7.7-5.2l36-20.8c2.7-1.6 6.7-1.7 9-.4l37.4 21.6c2.3 1.3 2 3.6-.6 5.2l-36.1 20.8c-2.7 1.5-6.7 1.7-9 .4z" class="cls-3" />
      <path d="M255.4 213.4L224 195.3c-2-1.1-1.7-3 .5-4.3l30.3-17.5c2.2-1.3 5.6-1.4 7.5-.3l31.3 18c2 1.2 1.7 3-.5 4.4l-30.3 17.5a8.4 8.4 0 01-7.4.3z" class="cls-5" />
      <path d="M288.2 209.6a3.3 3.3 0 01-1.5 2.6c-.8.5-1.5 0-1.5-.9a3.4 3.4 0 011.5-2.6c.8-.5 1.5 0 1.5.9zM293 206.8a3.3 3.3 0 01-1.4 2.6c-.9.5-1.6 0-1.6-.9a3.3 3.3 0 011.6-2.6c.8-.5 1.5 0 1.5.9zM298 204a3.3 3.3 0 01-1.6 2.6c-.8.5-1.5.1-1.5-.8a3.4 3.4 0 011.5-2.7c.9-.5 1.5-.1 1.5.9z" class="cls-3" />
      <path d="M302 185.6v-13h-29l-10-5.7c-2.2-1.3-6.2-1.2-8.9.4l-9.3 5.3h-29V186a2.6 2.6 0 001.5 2.4l37.4 21.6c2.3 1.3 6.3 1.2 9-.4l36.1-20.8c1.5-1 2.2-2 2.2-3.1z" class="cls-4" />
      <path d="M258.9 166a10.2 10.2 0 00-4.8 1.3l-9.4 5.3h-29V186a2.6 2.6 0 001.6 2.4l37.4 21.6a8 8 0 004.1.9z" class="cls-2" />
      <path d="M219 172.6h-3.2V186a2.6 2.6 0 001.5 2.4l1.7 1zM255.3 210.2a10.2 10.2 0 007.1-.1V195h-7.1z" class="cls-5" />
      <path d="M254.7 196.7L217.3 175c-2.3-1.4-2-3.7.7-5.2l36-20.9c2.7-1.5 6.7-1.7 9-.4l37.4 21.6c2.3 1.3 2 3.7-.6 5.2l-36.1 20.8c-2.7 1.6-6.7 1.8-9 .5z" class="cls-3" />
      <path d="M255.4 192.8L224 174.7c-2-1.1-1.7-3 .5-4.4l30.3-17.4c2.2-1.3 5.6-1.5 7.5-.4l31.3 18.1c2 1.2 1.7 3-.5 4.4l-30.3 17.4a8.4 8.4 0 01-7.4.4z" class="cls-5" />
      <path d="M288.2 189a3.3 3.3 0 01-1.5 2.6c-.8.5-1.5.1-1.5-.9a3.4 3.4 0 011.5-2.6c.8-.5 1.5-.1 1.5.9zM293 186.2a3.4 3.4 0 01-1.4 2.6c-.9.5-1.6 0-1.6-.9a3.3 3.3 0 011.6-2.6c.8-.5 1.5-.1 1.5.9zM298 183.3a3.3 3.3 0 01-1.6 2.7c-.8.4-1.5 0-1.5-.9a3.3 3.3 0 011.5-2.6c.9-.5 1.5-.1 1.5.8z" class="cls-3" />
      <path d="M302 165v-13h-29l-10-5.8c-2.3-1.3-6.3-1.1-9 .4l-9.3 5.4h-29v13.3a2.6 2.6 0 001.6 2.4l37.4 21.6c2.3 1.3 6.3 1.1 9-.4l36-20.9c1.6-.8 2.3-2 2.3-3z" class="cls-4" />
      <path d="M258.9 145.4a10.3 10.3 0 00-4.8 1.2l-9.4 5.4h-29v13.3a2.6 2.6 0 001.6 2.4l37.4 21.6a8.2 8.2 0 004.1.9z" class="cls-2" />
      <path d="M219 152h-3.2v13.3a2.6 2.6 0 001.5 2.4l1.7 1zM255.3 189.5a10.2 10.2 0 007.1 0v-15.1h-7.1z" class="cls-5" />
      <path d="M254.7 176l-37.4-21.6c-2.3-1.3-2-3.6.7-5.2l36-20.8c2.7-1.5 6.7-1.7 9-.4l37.4 21.6c2.3 1.3 2 3.6-.6 5.2l-36.1 20.8c-2.7 1.6-6.7 1.8-9 .4z" class="cls-3" />
      <path d="M255.4 172.1L224 154c-2-1.1-1.7-3 .5-4.3l30.3-17.5c2.2-1.3 5.6-1.4 7.5-.3l31.4 18.1c2 1.1 1.7 3-.5 4.3l-30.3 17.5a8.4 8.4 0 01-7.5.3z" class="cls-5" />
      <path d="M288.2 168.3a3.3 3.3 0 01-1.5 2.7c-.8.4-1.5 0-1.5-1a3.3 3.3 0 011.5-2.5c.8-.5 1.5-.1 1.5.8zM293 165.5a3.3 3.3 0 01-1.4 2.6c-.9.5-1.6.2-1.6-.8a3.3 3.3 0 011.6-2.6c.8-.5 1.5-.1 1.5.8zM298 162.7a3.3 3.3 0 01-1.6 2.7c-.8.4-1.5 0-1.5-1a3.3 3.3 0 011.5-2.5c.9-.5 1.5-.1 1.5.8z" class="cls-3" />
      <path d="M302 144.3v-12.9h-29l-10-5.8c-2.3-1.3-6.3-1.1-9 .4l-9.3 5.4h-29v13.3a2.6 2.6 0 001.6 2.4l37.4 21.6c2.3 1.3 6.3 1.1 9-.4l36-20.9c1.6-.9 2.3-2 2.3-3z" class="cls-4" />
      <path d="M258.9 124.7a10.4 10.4 0 00-4.8 1.3l-9.4 5.4h-29v13.3a2.6 2.6 0 001.6 2.4l37.4 21.5a8.2 8.2 0 004.1 1z" class="cls-2" />
      <path d="M219 131.4h-3.2v13.2a2.6 2.6 0 001.5 2.4l1.7 1zM255.3 169a10.2 10.2 0 007.1-.2v-15h-7.1z" class="cls-5" />
      <path d="M254.7 155.4l-37.4-21.6c-2.3-1.3-2-3.6.7-5.2l36-20.8c2.7-1.5 6.7-1.7 9-.4l37.4 21.6c2.3 1.3 2 3.6-.6 5.2L263.7 155c-2.7 1.6-6.7 1.7-9 .4z" class="cls-3" />
      <path d="M255.4 151.5l-31.4-18c-2-1.2-1.7-3 .5-4.4l30.3-17.5c2.2-1.3 5.6-1.4 7.5-.3l31.3 18.1c2 1.1 1.7 3-.5 4.3l-30.3 17.5a8.4 8.4 0 01-7.4.3z" class="cls-5" />
      <path d="M288.2 147.7a3.3 3.3 0 01-1.5 2.6c-.8.5-1.5.1-1.5-.8a3.3 3.3 0 011.5-2.7c.8-.4 1.5 0 1.5 1zM293 145a3.3 3.3 0 01-1.4 2.5c-.9.5-1.6.1-1.6-.8a3.4 3.4 0 011.6-2.7c.8-.4 1.5 0 1.5 1zM298 142.1a3.4 3.4 0 01-1.6 2.6c-.8.5-1.5.1-1.5-.8a3.3 3.3 0 011.5-2.7c.9-.4 1.5 0 1.5 1z" class="cls-3" />
      <path d="M302 123.7v-13h-29l-10-5.7c-2.3-1.3-6.3-1.2-9 .4l-9.3 5.4h-29V124a2.6 2.6 0 001.6 2.4l37.4 21.6c2.3 1.3 6.3 1.1 9-.4l36-20.8c1.6-.9 2.3-2 2.3-3.1z" class="cls-4" />
      <path d="M258.9 104.1a10.4 10.4 0 00-4.8 1.3l-9.4 5.4h-29V124a2.6 2.6 0 001.6 2.4l37.4 21.6a8.2 8.2 0 004.1.9z" class="cls-2" />
      <path d="M219 110.7h-3.2V124a2.6 2.6 0 001.5 2.4l1.7 1zM255.3 148.3a10.2 10.2 0 007.1 0V133h-7.1z" class="cls-5" />
      <path d="M254.7 134.8l-37.4-21.6c-2.3-1.3-2-3.7.7-5.2l36-20.8c2.7-1.6 6.7-1.7 9-.4l37.4 21.6c2.3 1.3 2 3.6-.6 5.2l-36.1 20.8c-2.7 1.5-6.7 1.7-9 .4z" class="cls-3" />
      <path d="M255.4 130.9L224 112.8c-2-1.1-1.7-3 .5-4.3L254.8 91a8.3 8.3 0 017.5-.3l31.4 18c2 1.2 1.7 3-.5 4.4l-30.3 17.5a8.3 8.3 0 01-7.5.3z" class="cls-5" />
      <path d="M270.6 132.2h17.3v.6h-17.3z" class="cls-7" transform="matrix(.87 -.5 .5 .87 -28.8 157.5)" />
      <path d="M288.2 127.1a3.4 3.4 0 01-1.5 2.6c-.8.5-1.5.1-1.5-.9a3.3 3.3 0 011.5-2.6c.8-.5 1.5 0 1.5.9zM293 124.3a3.3 3.3 0 01-1.4 2.6c-.9.5-1.6.1-1.6-.9a3.4 3.4 0 011.6-2.6c.8-.5 1.5 0 1.5.9zM298 121.5a3.3 3.3 0 01-1.6 2.6c-.8.5-1.5.1-1.5-.9a3.3 3.3 0 011.5-2.6c.9-.5 1.5 0 1.5.9z" class="cls-3" />
      <path d="M302 103V90h-29l-10-5.8c-2.3-1.3-6.3-1.1-9 .4l-9.3 5.4h-29v13.3a2.6 2.6 0 001.6 2.4l37.4 21.6c2.3 1.3 6.3 1.1 9-.4l36-20.9c1.6-.9 2.3-2 2.3-3z" class="cls-4" />
      <path d="M258.9 83.3a10.2 10.2 0 00-4.8 1.3l-9.4 5.4h-29v13.3a2.6 2.6 0 001.6 2.4l37.4 21.6a8 8 0 004.1.9z" class="cls-2" />
      <path d="M219 90h-3.2v13.3a2.6 2.6 0 001.5 2.4l1.7 1zM255.3 127.5a10.2 10.2 0 007.1 0v-15.1h-7.1z" class="cls-5" />
      <path d="M254.7 114l-37.4-21.6c-2.3-1.3-2-3.6.7-5.2l36-20.8c2.7-1.5 6.7-1.7 9-.4l37.4 21.6c2.3 1.3 2 3.6-.6 5.2l-36.1 20.8c-2.7 1.6-6.7 1.7-9 .4z" class="cls-3" />
      <path d="M299.8 90.3L263.7 111c-2.7 1.5-6.7 1.7-9 .4l-37.4-21.6a3.4 3.4 0 01-1.2-1c-.8 1.3-.4 2.6 1.2 3.6l37.4 21.5c2.3 1.3 6.3 1.2 9-.4l36-20.8c2.1-1.2 2.8-2.9 1.9-4.2a5 5 0 01-1.8 1.7z" class="cls-7" />
      <path d="M288.2 106.3a3.3 3.3 0 01-1.5 2.7c-.8.4-1.5 0-1.5-1a3.3 3.3 0 011.5-2.5c.8-.5 1.5-.1 1.5.8zM273.3 114.5a3.4 3.4 0 01-1.5 2.6c-.8.5-1.5.1-1.5-.8a3.3 3.3 0 011.5-2.6c.8-.5 1.5-.1 1.5.8z" class="cls-3" />
      <path d="M273.3 136a3.3 3.3 0 01-1.5 2.5c-.8.5-1.5.1-1.5-.8a3.3 3.3 0 011.5-2.6c.8-.5 1.5-.1 1.5.8z" class="cls-7" />
      <path d="M293 103.5a3.3 3.3 0 01-1.4 2.7c-.9.4-1.6 0-1.6-1a3.3 3.3 0 011.6-2.5c.8-.5 1.5-.1 1.5.8zM298 100.7a3.3 3.3 0 01-1.6 2.6c-.8.5-1.5.1-1.5-.8a3.4 3.4 0 011.5-2.7c.9-.4 1.5 0 1.5 1z" class="cls-3" />
      <path d="M257 100.6l-17.6-10c-1-.7-1-1.8.3-2.5l17-9.7a4.7 4.7 0 014.1-.2l17.5 10c1 .7 1 1.8-.3 2.5l-16.9 9.8a4.7 4.7 0 01-4.2.1z" class="cls-2" />
      <path d="M258.6 92.2l-2.4-1.4c-.2-.1-.1-.3 0-.4l2.3-1.3a.6.6 0 01.6 0l2.4 1.4c.2 0 .1.2 0 .3l-2.3 1.4a.6.6 0 01-.6 0z" class="cls-3" />
      <path d="M239.4 90.5l.3-.1 17-9.8a4.7 4.7 0 014.1-.2l17.5 10.1c1-.7 1-1.7 0-2.3l-17.5-10a4.7 4.7 0 00-4.2.1l-16.9 9.8c-1.2.7-1.3 1.8-.3 2.4z" class="cls-4" />
      <path d="M253.3 117c0 1-.8 1.5-1.6 1a3.5 3.5 0 01-1.6-2.8c0-1 .7-1.4 1.6-.9a3.5 3.5 0 011.6 2.8z" class="cls-3" />
      <path d="M248.3 114.3c0 1-.7 1.4-1.6.9a3.5 3.5 0 01-1.6-2.8c0-1 .7-1.4 1.6-1a3.5 3.5 0 011.6 2.8z" class="cls-5" />
      <path d="M253.3 123c0 1-.8 1.4-1.6 1a3.5 3.5 0 01-1.6-2.8c0-1 .7-1.5 1.6-1a3.5 3.5 0 011.6 2.8zM248.3 120.2c0 1-.7 1.4-1.6 1a3.5 3.5 0 01-1.6-2.8c0-1 .7-1.5 1.6-1a3.5 3.5 0 011.6 2.8zM253.3 137.6c0 1-.8 1.4-1.6.9a3.5 3.5 0 01-1.6-2.8c0-1 .7-1.4 1.6-.9a3.5 3.5 0 011.6 2.8zM248.3 134.7c0 1-.7 1.5-1.6 1a3.5 3.5 0 01-1.6-2.8c0-1 .7-1.4 1.6-1a3.5 3.5 0 011.6 2.8z" class="cls-3" />
      <path d="M253.3 143.5c0 1-.8 1.5-1.6 1a3.5 3.5 0 01-1.6-2.8c0-1 .7-1.4 1.6-1a3.5 3.5 0 011.6 2.8z" class="cls-5" />
      <path d="M248.3 140.7c0 1-.7 1.4-1.6 1a3.5 3.5 0 01-1.6-2.9c0-1 .7-1.4 1.6-.9a3.5 3.5 0 011.6 2.8zM253.3 158c0 1-.8 1.5-1.6 1a3.5 3.5 0 01-1.6-2.8c0-1 .7-1.4 1.6-.9a3.5 3.5 0 011.6 2.8z" class="cls-3" />
      <path d="M248.3 155.2c0 1-.7 1.5-1.6 1a3.5 3.5 0 01-1.6-2.8c0-1 .7-1.4 1.6-1a3.5 3.5 0 011.6 2.8z" class="cls-5" />
      <path d="M253.3 164c0 1-.8 1.4-1.6 1a3.5 3.5 0 01-1.6-2.8c0-1 .7-1.5 1.6-1a3.5 3.5 0 011.6 2.8z" class="cls-3" />
      <path d="M248.3 161.2c0 1-.7 1.4-1.6 1a3.5 3.5 0 01-1.6-2.8c0-1 .7-1.5 1.6-1a3.5 3.5 0 011.6 2.8zM253.3 178.8c0 1-.8 1.4-1.6.9a3.5 3.5 0 01-1.6-2.8c0-1 .7-1.4 1.6-.9a3.5 3.5 0 011.6 2.8z" class="cls-5" />
      <path d="M248.3 176c0 1-.7 1.4-1.6 1a3.5 3.5 0 01-1.6-2.8c0-1 .7-1.5 1.6-1a3.5 3.5 0 011.6 2.8zM253.3 184.7c0 1-.8 1.5-1.6 1a3.5 3.5 0 01-1.6-2.8c0-1 .7-1.4 1.6-1a3.5 3.5 0 011.6 2.8z" class="cls-3" />
      <path d="M248.3 182c0 1-.7 1.3-1.6.8a3.5 3.5 0 01-1.6-2.7c0-1 .7-1.5 1.6-1a3.5 3.5 0 011.6 2.8zM253.3 199.3c0 1-.8 1.4-1.6 1a3.5 3.5 0 01-1.6-2.9c0-1 .7-1.4 1.6-.9a3.5 3.5 0 011.6 2.8z" class="cls-5" />
      <path d="M248.3 196.5c0 1-.7 1.4-1.6.9a3.5 3.5 0 01-1.6-2.8c0-1 .7-1.4 1.6-.9a3.5 3.5 0 011.6 2.8z" class="cls-3" />
      <path d="M253.3 205.3c0 1-.8 1.4-1.6.9a3.5 3.5 0 01-1.6-2.8c0-1 .7-1.4 1.6-1a3.5 3.5 0 011.6 2.8z" class="cls-5" />
      <path d="M248.3 202.4c0 1-.7 1.4-1.6 1a3.5 3.5 0 01-1.6-2.8c0-1 .7-1.5 1.6-1a3.5 3.5 0 011.6 2.8zM253.3 220c0 1-.8 1.5-1.6 1a3.5 3.5 0 01-1.6-2.8c0-1 .7-1.4 1.6-.9a3.5 3.5 0 011.6 2.8z" class="cls-3" />
      <path d="M248.3 217.2c0 1-.7 1.5-1.6 1a3.5 3.5 0 01-1.6-2.8c0-1 .7-1.4 1.6-1a3.5 3.5 0 011.6 2.8z" class="cls-5" />
      <path d="M253.3 226c0 1-.8 1.4-1.6 1a3.5 3.5 0 01-1.6-2.8c0-1 .7-1.5 1.6-1a3.5 3.5 0 011.6 2.8zM248.3 223.2c0 1-.7 1.4-1.6.9a3.5 3.5 0 01-1.6-2.8c0-1 .7-1.4 1.6-.9a3.5 3.5 0 011.6 2.8z" class="cls-3" />
      <path d="M184.4 206.3v-13h-28.9l-10-5.7c-2.3-1.3-6.3-1.2-9 .4l-9.3 5.4h-29v13.2a2.6 2.6 0 001.5 2.4l37.4 21.6c2.3 1.4 6.3 1.2 9-.3l36-20.9c1.7-1 2.4-2 2.3-3.1z" class="cls-4" />
      <path d="M141.4 186.7a10.4 10.4 0 00-4.8 1.3l-9.4 5.3h-29v13.3a2.6 2.6 0 001.6 2.4l37.4 21.6a8.1 8.1 0 004.1.9z" class="cls-2" />
      <path d="M101.5 193.3h-3.2v13.3a2.6 2.6 0 001.5 2.4l1.8 1zM137.8 230.9a10.2 10.2 0 007.1-.1v-15h-7.1z" class="cls-5" />
      <path d="M137.2 217.4l-37.4-21.6c-2.3-1.4-2-3.7.7-5.2l36-20.8c2.7-1.6 6.7-1.7 9-.4L183 191c2.3 1.3 2 3.6-.6 5.2L146.2 217c-2.7 1.5-6.7 1.7-9 .4z" class="cls-3" />
      <path d="M137.9 213.5l-31.4-18.1c-1.9-1.1-1.6-3 .6-4.4l30.2-17.4a8.3 8.3 0 017.5-.3l31.4 18c2 1.2 1.7 3-.5 4.4l-30.3 17.5c-2.2 1.3-5.6 1.4-7.5.3z" class="cls-5" />
      <path d="M170.7 209.7a3.4 3.4 0 01-1.5 2.6c-.8.5-1.5 0-1.5-.9a3.3 3.3 0 011.5-2.6c.8-.5 1.5 0 1.5.9zM175.6 206.9a3.3 3.3 0 01-1.5 2.6c-.9.5-1.6 0-1.6-.9a3.3 3.3 0 011.6-2.6c.8-.5 1.5 0 1.5.9zM180.4 204a3.3 3.3 0 01-1.5 2.7c-.8.5-1.5 0-1.5-.9a3.3 3.3 0 011.5-2.6c.8-.5 1.5 0 1.5.9z" class="cls-3" />
      <path d="M184.4 185.7v-13h-28.9l-10-5.7c-2.3-1.4-6.3-1.2-9 .3l-9.3 5.4h-29V186a2.6 2.6 0 001.5 2.4l37.5 21.6c2.3 1.3 6.3 1.2 9-.4l36-20.8c1.6-1 2.3-2 2.3-3.2z" class="cls-4" />
      <path d="M141.4 166a10.3 10.3 0 00-4.8 1.3l-9.4 5.4h-29V186a2.6 2.6 0 001.6 2.4l37.4 21.6a8 8 0 004.2.9z" class="cls-2" />
      <path d="M101.5 172.7h-3.2V186a2.6 2.6 0 001.5 2.4l1.8 1zM137.8 210.3a10.2 10.2 0 007.1-.1V195h-7.1z" class="cls-5" />
      <path d="M137.2 196.7l-37.4-21.5c-2.3-1.4-2-3.7.7-5.2l36-20.9c2.7-1.5 6.7-1.7 9-.3l37.5 21.6c2.3 1.3 2 3.6-.7 5.1l-36.1 20.9c-2.7 1.5-6.7 1.7-9 .3z" class="cls-3" />
      <path d="M137.9 192.8l-31.4-18c-1.9-1.2-1.6-3 .6-4.4l30.2-17.4c2.3-1.3 5.6-1.4 7.5-.3l31.4 18c2 1.2 1.7 3-.5 4.4l-30.3 17.5a8.3 8.3 0 01-7.5.3z" class="cls-5" />
      <path d="M170.7 189a3.4 3.4 0 01-1.5 2.7c-.8.5-1.5 0-1.5-.9a3.3 3.3 0 011.5-2.6c.8-.5 1.5-.1 1.5.9zM175.6 186.3a3.3 3.3 0 01-1.5 2.6c-.9.4-1.6 0-1.6-.9a3.3 3.3 0 011.6-2.6c.8-.5 1.5-.1 1.5.8zM180.4 183.4a3.3 3.3 0 01-1.5 2.7c-.8.4-1.5 0-1.5-1a3.4 3.4 0 011.5-2.5c.8-.5 1.5-.1 1.5.8z" class="cls-3" />
      <path d="M184.4 165v-12.9h-28.9l-10-5.8c-2.3-1.3-6.3-1.1-9 .4l-9.3 5.4h-29v13.3a2.6 2.6 0 001.5 2.4l37.4 21.5c2.3 1.4 6.3 1.2 9-.3l36-20.9c1.7-.9 2.4-2 2.3-3.1z" class="cls-4" />
      <path d="M141.4 145.4a10.3 10.3 0 00-4.8 1.3l-9.4 5.4h-29v13.3a2.6 2.6 0 001.6 2.4l37.4 21.6a8 8 0 004.1.8z" class="cls-2" />
      <path d="M101.5 152h-3.2v13.4a2.6 2.6 0 001.5 2.4l1.8 1zM137.8 189.6a10.2 10.2 0 007.1 0v-15.1h-7.1z" class="cls-5" />
      <path d="M137.2 176.1l-37.4-21.6c-2.3-1.3-2-3.6.7-5.1l36-20.9c2.7-1.5 6.7-1.7 9-.4l37.5 21.6c2.3 1.4 2 3.7-.7 5.2l-36.1 20.9c-2.7 1.5-6.7 1.6-9 .3z" class="cls-3" />
      <path d="M137.9 172.2l-31.4-18c-1.9-1.2-1.6-3 .6-4.4l30.2-17.5c2.3-1.3 5.6-1.4 7.5-.3l31.4 18.1c2 1.1 1.7 3-.5 4.3L145.3 172c-2.2 1.3-5.6 1.4-7.5.3z" class="cls-5" />
      <path d="M170.7 168.4a3.3 3.3 0 01-1.5 2.6c-.8.5-1.5.1-1.5-.8a3.3 3.3 0 011.5-2.6c.8-.5 1.5-.1 1.5.8zM175.6 165.6a3.4 3.4 0 01-1.5 2.7c-.9.4-1.6 0-1.6-1a3.3 3.3 0 011.6-2.5c.8-.5 1.5-.1 1.5.8zM180.4 162.8a3.3 3.3 0 01-1.5 2.6c-.8.5-1.5.1-1.5-.8a3.3 3.3 0 011.5-2.6c.8-.5 1.5-.1 1.5.8z" class="cls-3" />
      <path d="M184.4 144.4v-12.9h-28.9l-10-5.8c-2.3-1.3-6.3-1.1-9 .4l-9.3 5.4h-29v13.3a2.6 2.6 0 001.5 2.4l37.4 21.6c2.3 1.3 6.3 1.1 9-.4l36-20.9c1.7-.9 2.4-2 2.3-3z" class="cls-4" />
      <path d="M141.4 124.8a10.3 10.3 0 00-4.8 1.3l-9.4 5.4h-29v13.2a2.6 2.6 0 001.6 2.4l37.4 21.6a8 8 0 004.1 1z" class="cls-2" />
      <path d="M101.5 131.5h-3.2v13.2a2.6 2.6 0 001.5 2.4l1.8 1zM137.8 169a10.2 10.2 0 007.1 0v-15.2h-7.1z" class="cls-5" />
      <path d="M137.2 155.5l-37.4-21.6c-2.3-1.3-2-3.6.7-5.2l36-20.8c2.7-1.5 6.7-1.7 9-.4l37.5 21.6c2.3 1.3 2 3.7-.7 5.2L146.2 155c-2.7 1.6-6.7 1.7-9 .4z" class="cls-3" />
      <path d="M137.9 151.6l-31.4-18c-1.9-1.2-1.6-3.1.6-4.4l30.2-17.5c2.3-1.3 5.6-1.4 7.5-.3l31.4 18.1c2 1.1 1.7 3-.5 4.3l-30.3 17.5c-2.2 1.3-5.6 1.4-7.5.3z" class="cls-5" />
      <path d="M170.7 147.8a3.3 3.3 0 01-1.5 2.6c-.8.5-1.5.1-1.5-.8a3.4 3.4 0 011.5-2.7c.8-.4 1.5 0 1.5 1zM175.6 145a3.4 3.4 0 01-1.5 2.6c-.9.5-1.6.1-1.6-.9a3.3 3.3 0 011.6-2.6c.8-.4 1.5 0 1.5.9zM180.4 142.2a3.3 3.3 0 01-1.5 2.6c-.8.5-1.5.1-1.5-.9a3.3 3.3 0 011.5-2.6c.8-.5 1.5 0 1.5.9z" class="cls-3" />
      <path d="M184.4 123.8v-13h-28.9l-10-5.7c-2.3-1.3-6.3-1.2-9 .4l-9.3 5.4h-29V124a2.6 2.6 0 001.5 2.4l37.4 21.6c2.3 1.3 6.3 1.2 9-.4l36-20.8c1.7-.9 2.4-2 2.3-3.1z" class="cls-4" />
      <path d="M141.4 104.2a10.3 10.3 0 00-4.8 1.3l-9.4 5.3h-29v13.3a2.6 2.6 0 001.6 2.4l37.4 21.6a8.1 8.1 0 004.1.9z" class="cls-2" />
      <path d="M101.5 110.8h-3.2v13.3a2.6 2.6 0 001.5 2.4l1.8 1zM137.8 148.4a10.2 10.2 0 007.1-.1v-15h-7.1z" class="cls-5" />
      <path d="M137.2 134.9l-37.4-21.6c-2.3-1.3-2-3.7.7-5.2l36-20.8a10 10 0 019-.4l37.5 21.6c2.3 1.3 2 3.6-.7 5.2l-36.1 20.8c-2.7 1.5-6.7 1.7-9 .4z" class="cls-3" />
      <path d="M137.9 131l-31.4-18.1c-1.9-1.1-1.6-3 .6-4.3L137.3 91c2.3-1.3 5.6-1.4 7.5-.3l31.4 18c2 1.2 1.7 3-.5 4.4l-30.3 17.5a8.3 8.3 0 01-7.5.3z" class="cls-5" />
      <path d="M153.1 132.3h17.3v.6h-17.3z" class="cls-7" transform="rotate(-30 161.8 132.5)" />
      <path d="M170.7 127.2a3.3 3.3 0 01-1.5 2.6c-.8.5-1.5.1-1.5-.9a3.3 3.3 0 011.5-2.6c.8-.5 1.5 0 1.5.9zM175.6 124.4a3.3 3.3 0 01-1.5 2.6c-.9.5-1.6.1-1.6-.9a3.3 3.3 0 011.6-2.6c.8-.5 1.5 0 1.5.9zM180.4 121.6a3.3 3.3 0 01-1.5 2.6c-.8.5-1.5 0-1.5-.9a3.3 3.3 0 011.5-2.6c.8-.5 1.5 0 1.5.9z" class="cls-3" />
      <path d="M184.4 103V90.1h-28.9l-10-5.8c-2.3-1.3-6.3-1.1-9 .4l-9.3 5.4h-29v13.3a2.6 2.6 0 001.5 2.4l37.4 21.6c2.3 1.3 6.3 1.1 9-.4l36-20.9c1.7-.9 2.4-2 2.3-3.1z" class="cls-4" />
      <path d="M141.4 83.4a10.4 10.4 0 00-4.8 1.3l-9.4 5.4h-29v13.3a2.6 2.6 0 001.6 2.4l37.4 21.6a8.1 8.1 0 004.1.8z" class="cls-2" />
      <path d="M101.5 90h-3.2v13.3a2.6 2.6 0 001.5 2.4l1.8 1zM137.8 127.6a10.2 10.2 0 007.1 0v-15.1h-7.1z" class="cls-5" />
      <path d="M137.2 114.1L99.8 92.5c-2.3-1.3-2-3.6.7-5.2l36-20.8a10 10 0 019-.4L183 87.7c2.3 1.3 2 3.7-.7 5.2l-36.1 20.8c-2.7 1.6-6.7 1.7-9 .4z" class="cls-3" />
      <path d="M182.3 90.3l-36.1 20.9c-2.7 1.5-6.7 1.7-9 .4L99.8 90a3.5 3.5 0 01-1.1-1c-.8 1.3-.5 2.6 1.1 3.5l37.4 21.6c2.3 1.4 6.3 1.2 9-.3l36-20.9c2.1-1.2 2.8-2.8 1.9-4.1a5 5 0 01-1.8 1.5z" class="cls-7" />
      <path d="M170.7 106.4a3.4 3.4 0 01-1.5 2.7c-.8.4-1.5 0-1.5-1a3.3 3.3 0 011.5-2.5c.8-.5 1.5-.1 1.5.8zM155.8 114.6a3.3 3.3 0 01-1.5 2.6c-.8.5-1.5.1-1.5-.8a3.3 3.3 0 011.5-2.7c.8-.4 1.5 0 1.5 1z" class="cls-3" />
      <path d="M155.8 136a3.3 3.3 0 01-1.5 2.6c-.8.5-1.5.1-1.5-.8a3.3 3.3 0 011.5-2.7c.8-.4 1.5 0 1.5.9z" class="cls-7" />
      <path d="M175.6 103.6a3.3 3.3 0 01-1.5 2.6c-.9.5-1.6.1-1.6-.8a3.3 3.3 0 011.6-2.7c.8-.4 1.5 0 1.5 1zM180.4 100.8a3.4 3.4 0 01-1.5 2.6c-.8.5-1.5.1-1.5-.8a3.3 3.3 0 011.5-2.6c.8-.5 1.5-.1 1.5.8z" class="cls-3" />
      <path d="M139.4 100.7l-17.5-10c-1-.7-1-1.8.3-2.5l17-9.8a4.7 4.7 0 014.1-.1l17.5 10c1 .7 1 1.8-.3 2.5l-16.9 9.8a4.7 4.7 0 01-4.2.1z" class="cls-2" />
      <path d="M141 92.3l-2.3-1.4c-.2-.1-.2-.3 0-.4l2.3-1.3a.6.6 0 01.6 0l2.4 1.4c.2 0 .1.2 0 .3l-2.3 1.4a.7.7 0 01-.6 0z" class="cls-3" />
      <path d="M122 90.6a1.6 1.6 0 01.2-.1l16.9-9.8a4.7 4.7 0 014.2-.2l17.4 10c1-.6 1-1.6 0-2.1l-17.4-10.2a4.7 4.7 0 00-4.2.2l-17 9.8c-1.1.7-1.3 1.8-.2 2.4z" class="cls-4" />
      <path d="M135.8 117.2c0 1-.8 1.4-1.6.9a3.5 3.5 0 01-1.6-2.8c0-1 .7-1.4 1.6-.9a3.5 3.5 0 011.6 2.8z" class="cls-3" />
      <path d="M130.8 114.3c0 1-.7 1.5-1.6 1a3.5 3.5 0 01-1.6-2.8c0-1 .8-1.4 1.6-1a3.6 3.6 0 011.6 2.8z" class="cls-5" />
      <path d="M135.8 123.1c0 1-.8 1.5-1.6 1a3.5 3.5 0 01-1.6-2.8c0-1 .7-1.4 1.6-1a3.5 3.5 0 011.6 2.8zM130.8 120.3c0 1-.7 1.4-1.6 1a3.5 3.5 0 01-1.6-2.8c0-1 .8-1.5 1.6-1a3.6 3.6 0 011.6 2.8zM135.8 137.7c0 1-.8 1.4-1.6.9a3.5 3.5 0 01-1.6-2.8c0-1 .7-1.4 1.6-.9a3.5 3.5 0 011.6 2.8z" class="cls-3" />
      <path d="M130.8 134.8c0 1-.7 1.5-1.6 1a3.5 3.5 0 01-1.6-2.8c0-1 .8-1.4 1.6-1a3.5 3.5 0 011.6 2.8z" class="cls-9" />
      <path d="M135.8 143.6c0 1-.8 1.4-1.6 1a3.5 3.5 0 01-1.6-2.8c0-1 .7-1.5 1.6-1a3.5 3.5 0 011.6 2.8z" class="cls-5" />
      <path d="M130.8 140.8c0 1-.7 1.4-1.6.9a3.5 3.5 0 01-1.6-2.8c0-1 .8-1.4 1.6-.9a3.5 3.5 0 011.6 2.8zM135.8 158.2c0 1-.8 1.4-1.6.9a3.5 3.5 0 01-1.6-2.8c0-1 .7-1.4 1.6-.9a3.5 3.5 0 011.6 2.8z" class="cls-3" />
      <path d="M130.8 155.3c0 1-.7 1.5-1.6 1a3.5 3.5 0 01-1.6-2.8c0-1 .8-1.4 1.6-1a3.5 3.5 0 011.6 2.8z" class="cls-5" />
      <path d="M135.8 164.1c0 1-.8 1.5-1.6 1a3.5 3.5 0 01-1.6-2.8c0-1 .7-1.4 1.6-1a3.5 3.5 0 011.6 2.8z" class="cls-9" />
      <path d="M130.8 161.3c0 1-.7 1.4-1.6 1a3.5 3.5 0 01-1.6-2.8c0-1 .8-1.5 1.6-1a3.5 3.5 0 011.6 2.8zM135.8 178.9c0 1-.8 1.4-1.6.9a3.5 3.5 0 01-1.6-2.8c0-1 .7-1.4 1.6-.9a3.5 3.5 0 011.6 2.8z" class="cls-5" />
      <path d="M130.8 176c0 1-.7 1.4-1.6 1a3.5 3.5 0 01-1.6-2.8c0-1 .8-1.5 1.6-1a3.5 3.5 0 011.6 2.8zM135.8 184.8c0 1-.8 1.5-1.6 1a3.5 3.5 0 01-1.6-2.8c0-1 .7-1.4 1.6-1a3.5 3.5 0 011.6 2.8z" class="cls-3" />
      <path d="M130.8 182c0 1-.7 1.4-1.6 1a3.5 3.5 0 01-1.6-2.8c0-1 .8-1.5 1.6-1a3.5 3.5 0 011.6 2.8z" class="cls-5" />
      <path d="M135.8 199.4c0 1-.8 1.4-1.6.9a3.5 3.5 0 01-1.6-2.8c0-1 .7-1.4 1.6-.9a3.5 3.5 0 011.6 2.8zM130.8 196.6c0 1-.7 1.4-1.6.9a3.5 3.5 0 01-1.6-2.8c0-1 .8-1.4 1.6-.9a3.5 3.5 0 011.6 2.8zM135.8 205.3c0 1-.8 1.5-1.6 1a3.5 3.5 0 01-1.6-2.8c0-1 .7-1.4 1.6-1a3.5 3.5 0 011.6 2.8z" class="cls-9" />
      <path d="M130.8 202.5c0 1-.7 1.4-1.6 1a3.5 3.5 0 01-1.6-2.8c0-1 .8-1.5 1.6-1a3.5 3.5 0 011.6 2.8zM135.8 220.2c0 1-.8 1.4-1.6.9a3.5 3.5 0 01-1.6-2.8c0-1 .7-1.4 1.6-1a3.5 3.5 0 011.6 2.8z" class="cls-3" />
      <path d="M130.8 217.3c0 1-.7 1.4-1.6 1a3.5 3.5 0 01-1.6-2.8c0-1 .8-1.5 1.6-1a3.5 3.5 0 011.6 2.8z" class="cls-5" />
      <path d="M135.8 226.1c0 1-.8 1.4-1.6 1a3.5 3.5 0 01-1.6-2.8c0-1 .7-1.5 1.6-1a3.5 3.5 0 011.6 2.8zM130.8 223.3c0 1-.7 1.4-1.6.9a3.5 3.5 0 01-1.6-2.8c0-1 .8-1.4 1.6-.9a3.5 3.5 0 011.6 2.8z" class="cls-3" />
      <path d="M243.2 240v-12.8h-29l-10-5.8c-2.2-1.3-6.2-1.1-9 .4l-9.2 5.4h-29v13.2a2.6 2.6 0 001.5 2.4l37.5 21.6c2.3 1.3 6.3 1.2 9-.4l36-20.8c1.6-.9 2.3-2 2.2-3.1z" class="cls-4" />
      <path d="M200.1 220.5a10.3 10.3 0 00-4.8 1.3l-9.3 5.4h-29v13.2a2.6 2.6 0 001.5 2.4l37.5 21.6a8 8 0 004.2.9z" class="cls-2" />
      <path d="M160.3 227.1H157v13.3a2.6 2.6 0 001.5 2.4l1.8 1zM196.5 264.7a10.2 10.2 0 007.2-.1v-15h-7.2z" class="cls-5" />
      <path d="M196 251.2l-37.4-21.6c-2.3-1.3-2-3.6.6-5.2l36.1-20.8c2.7-1.6 6.7-1.7 9-.4l37.4 21.6c2.3 1.3 2 3.6-.6 5.2L205 250.8c-2.7 1.5-6.8 1.7-9 .4z" class="cls-3" />
      <path d="M196.6 247.3l-31.3-18.1c-2-1.1-1.7-3 .5-4.3l30.3-17.5c2.2-1.3 5.6-1.4 7.5-.3l31.3 18c2 1.2 1.7 3-.5 4.4L204.1 247a8.3 8.3 0 01-7.5.3z" class="cls-5" />
      <path d="M229.4 243.5a3.3 3.3 0 01-1.5 2.6c-.8.5-1.5.1-1.5-.9a3.3 3.3 0 011.5-2.6c.9-.5 1.5 0 1.5.9zM234.3 240.7a3.3 3.3 0 01-1.5 2.6c-.8.5-1.5.1-1.5-.9a3.3 3.3 0 011.5-2.6c.8-.5 1.5 0 1.5.9zM239.2 237.9a3.3 3.3 0 01-1.5 2.6c-.9.5-1.5 0-1.5-.9a3.4 3.4 0 011.5-2.6c.8-.5 1.5 0 1.5.9z" class="cls-3" />
      <path d="M243.2 219.5v-13h-29l-10-5.7c-2.2-1.3-6.2-1.2-9 .4l-9.2 5.3h-29v13.3a2.6 2.6 0 001.5 2.4l37.5 21.6c2.3 1.3 6.3 1.1 9-.4l36-20.8c1.6-1 2.3-2 2.2-3.1z" class="cls-4" />
      <path d="M200.1 199.9a10.3 10.3 0 00-4.8 1.2l-9.3 5.4h-29v13.3a2.6 2.6 0 001.5 2.4l37.5 21.6a8 8 0 004.2.9z" class="cls-2" />
      <path d="M160.3 206.5H157v13.3a2.6 2.6 0 001.5 2.4l1.8 1zM196.5 244a10.2 10.2 0 007.2 0v-15h-7.2z" class="cls-5" />
      <path d="M196 230.6L158.6 209c-2.3-1.3-2-3.6.6-5.2l36.1-20.8c2.7-1.5 6.7-1.7 9-.4l37.4 21.6c2.3 1.3 2 3.7-.6 5.2L205 230.2c-2.7 1.5-6.8 1.7-9 .4z" class="cls-3" />
      <path d="M196.6 226.7l-31.3-18.1c-2-1.1-1.7-3 .5-4.4l30.3-17.4c2.2-1.3 5.6-1.5 7.5-.3l31.3 18c2 1.2 1.7 3.1-.5 4.4l-30.3 17.5c-2.2 1.2-5.5 1.4-7.5.3z" class="cls-5" />
      <path d="M229.4 222.9a3.3 3.3 0 01-1.5 2.6c-.8.5-1.5 0-1.5-.9a3.4 3.4 0 011.5-2.6c.9-.5 1.5 0 1.5.9zM234.3 220a3.4 3.4 0 01-1.5 2.7c-.8.5-1.5 0-1.5-.9a3.3 3.3 0 011.5-2.6c.8-.5 1.5 0 1.5.9zM239.2 217.3a3.3 3.3 0 01-1.5 2.6c-.9.5-1.5 0-1.5-.9a3.3 3.3 0 011.5-2.6c.8-.5 1.5-.1 1.5.9z" class="cls-3" />
      <path d="M243.2 198.8V186h-29l-10-5.8c-2.2-1.3-6.2-1.1-9 .4l-9.2 5.3h-29v13.3a2.6 2.6 0 001.5 2.4l37.5 21.6c2.3 1.3 6.3 1.1 9-.4l36-20.9c1.6-.8 2.3-2 2.2-3z" class="cls-4" />
      <path d="M200.1 179.3a10.3 10.3 0 00-4.8 1.2L186 186h-29v13.3a2.6 2.6 0 001.5 2.4l37.5 21.6a8 8 0 004.2.9z" class="cls-2" />
      <path d="M160.3 185.9H157v13.3a2.6 2.6 0 001.5 2.4l1.8 1zM196.5 223.4a10.2 10.2 0 007.2 0v-15.1h-7.2z" class="cls-5" />
      <path d="M196 210l-37.4-21.7c-2.3-1.3-2-3.6.6-5.1l36.1-20.9c2.7-1.5 6.7-1.7 9-.3l37.4 21.6c2.3 1.3 2 3.6-.6 5.1L205 209.6c-2.7 1.5-6.8 1.7-9 .3z" class="cls-3" />
      <path d="M196.6 206l-31.3-18c-2-1.1-1.7-3 .5-4.3l30.3-17.5c2.2-1.3 5.6-1.4 7.5-.3l31.3 18c2 1.2 1.7 3.1-.5 4.4l-30.3 17.5c-2.2 1.2-5.5 1.4-7.5.3z" class="cls-5" />
      <path d="M229.4 202.3a3.3 3.3 0 01-1.5 2.6c-.8.4-1.5 0-1.5-.9a3.3 3.3 0 011.5-2.6c.9-.5 1.5-.1 1.5.9zM234.3 199.4a3.4 3.4 0 01-1.5 2.7c-.8.4-1.5 0-1.5-1a3.3 3.3 0 011.5-2.5c.8-.5 1.5-.1 1.5.8zM239.2 196.6a3.3 3.3 0 01-1.5 2.7c-.9.4-1.5 0-1.5-1a3.3 3.3 0 011.5-2.5c.8-.5 1.5-.1 1.5.8z" class="cls-3" />
      <path d="M243.2 178.2v-12.9h-29l-10-5.8c-2.2-1.3-6.2-1.1-9 .4l-9.2 5.4h-29v13.3a2.6 2.6 0 001.5 2.4l37.5 21.5c2.3 1.4 6.3 1.2 9-.3l36-20.9c1.6-.9 2.3-2 2.2-3z" class="cls-4" />
      <path d="M200.1 158.7a10.4 10.4 0 00-4.8 1.2l-9.3 5.4h-29v13.3a2.6 2.6 0 001.5 2.4l37.5 21.5a8.1 8.1 0 004.2 1z" class="cls-2" />
      <path d="M160.3 165.3H157v13.2a2.6 2.6 0 001.5 2.5l1.8 1zM196.5 202.8a10.2 10.2 0 007.2 0v-15.1h-7.2z" class="cls-5" />
      <path d="M196 189.3l-37.4-21.6c-2.3-1.3-2-3.6.6-5.1l36.1-20.9a10 10 0 019-.4l37.4 21.6c2.3 1.4 2 3.7-.6 5.2L205 188.9c-2.7 1.6-6.8 1.7-9 .4z" class="cls-3" />
      <path d="M196.6 185.4l-31.3-18c-2-1.2-1.7-3.1.5-4.4l30.3-17.5c2.2-1.2 5.6-1.4 7.5-.3l31.3 18.1c2 1.1 1.7 3-.5 4.3l-30.3 17.5c-2.2 1.3-5.5 1.4-7.5.3z" class="cls-5" />
      <path d="M229.4 181.6a3.3 3.3 0 01-1.5 2.7c-.8.4-1.5 0-1.5-1a3.3 3.3 0 011.5-2.5c.9-.5 1.5-.1 1.5.8zM234.3 178.8a3.3 3.3 0 01-1.5 2.6c-.8.5-1.5.1-1.5-.8a3.3 3.3 0 011.5-2.6c.8-.5 1.5-.1 1.5.8zM239.2 176a3.4 3.4 0 01-1.5 2.6c-.9.5-1.5.1-1.5-.8a3.3 3.3 0 011.5-2.7c.8-.4 1.5 0 1.5.9z" class="cls-3" />
      <path d="M243.2 157.6v-12.9h-29l-10-5.8c-2.2-1.3-6.2-1.1-9 .4l-9.2 5.4h-29v13.2a2.6 2.6 0 001.5 2.4L196 182c2.3 1.4 6.3 1.2 9-.3l36.1-20.9c1.6-.9 2.3-2 2.2-3z" class="cls-4" />
      <path d="M200.1 138a10.4 10.4 0 00-4.8 1.3l-9.3 5.4h-29v13.2a2.6 2.6 0 001.5 2.4L196 182a8.1 8.1 0 004.2 1z" class="cls-2" />
      <path d="M160.3 144.7H157v13.2a2.6 2.6 0 001.5 2.4l1.8 1zM196.5 182.2a10.2 10.2 0 007.2 0V167h-7.2z" class="cls-5" />
      <path d="M196 168.7L158.6 147c-2.3-1.3-2-3.6.6-5.2l36.1-20.8a10 10 0 019-.4l37.4 21.6c2.3 1.3 2 3.6-.6 5.2L205 168.3c-2.7 1.5-6.8 1.7-9 .4z" class="cls-3" />
      <path d="M196.6 164.8l-31.3-18c-2-1.2-1.7-3.1.5-4.4l30.3-17.5c2.2-1.3 5.6-1.4 7.5-.3l31.3 18c2 1.2 1.7 3.1-.5 4.4l-30.3 17.5c-2.2 1.3-5.5 1.4-7.5.3z" class="cls-5" />
      <path d="M211.9 166.1h17.3v.6h-17.3z" class="cls-7" transform="rotate(-30 220.5 166.4)" />
      <path d="M229.4 161a3.3 3.3 0 01-1.5 2.6c-.8.5-1.5.1-1.5-.8a3.3 3.3 0 011.5-2.7c.9-.4 1.5 0 1.5.9zM234.3 158.2a3.3 3.3 0 01-1.5 2.6c-.8.5-1.5.1-1.5-.8a3.4 3.4 0 011.5-2.7c.8-.5 1.5 0 1.5 1zM239.2 155.4a3.4 3.4 0 01-1.5 2.6c-.9.5-1.5.1-1.5-.9a3.3 3.3 0 011.5-2.6c.8-.4 1.5 0 1.5.9z" class="cls-3" />
      <path d="M243.2 136.8V124h-29l-10-5.7c-2.2-1.4-6.2-1.2-9 .3L186 124h-29v13.3a2.6 2.6 0 001.5 2.4l37.5 21.6c2.3 1.3 6.3 1.1 9-.4l36-20.9c1.6-.8 2.3-2 2.2-3z" class="cls-4" />
      <path d="M200.1 117.3a10.4 10.4 0 00-4.8 1.2L186 124h-29v13.3a2.6 2.6 0 001.5 2.4l37.5 21.6a8 8 0 004.2.8z" class="cls-2" />
      <path d="M160.3 123.9H157v13.3a2.6 2.6 0 001.5 2.4l1.8 1zM196.5 161.4a10.2 10.2 0 007.2 0v-15.1h-7.2z" class="cls-5" />
      <path d="M196 148l-37.4-21.7c-2.3-1.3-2-3.6.6-5.1l36.1-20.9c2.7-1.5 6.7-1.7 9-.4l37.4 21.6c2.3 1.4 2 3.7-.6 5.2L205 147.6c-2.7 1.5-6.8 1.7-9 .3z" class="cls-3" />
      <path d="M241 124.2L205 145c-2.7 1.5-6.8 1.7-9 .4l-37.4-21.6a3.5 3.5 0 01-1.2-1c-.8 1.3-.4 2.6 1.2 3.5L196 148c2.3 1.4 6.3 1.2 9-.3l36-20.9c2-1.2 2.7-2.8 1.8-4.1a5 5 0 01-1.8 1.6z" class="cls-7" />
      <path d="M229.4 140.3a3.4 3.4 0 01-1.5 2.6c-.8.4-1.5 0-1.5-1a3.3 3.3 0 011.5-2.5c.9-.5 1.5-.1 1.5.8zM214.6 148.4a3.3 3.3 0 01-1.5 2.7c-.9.4-1.6 0-1.6-1a3.3 3.3 0 011.6-2.5c.8-.5 1.5-.1 1.5.8z" class="cls-3" />
      <path d="M214.6 169.8a3.4 3.4 0 01-1.5 2.7c-.9.4-1.6 0-1.6-1a3.3 3.3 0 011.6-2.5c.8-.5 1.5-.1 1.5.8z" class="cls-7" />
      <path d="M234.3 137.4a3.3 3.3 0 01-1.5 2.7c-.8.4-1.5 0-1.5-1a3.3 3.3 0 011.5-2.5c.8-.5 1.5-.1 1.5.8zM239.2 134.6a3.3 3.3 0 01-1.5 2.6c-.9.5-1.5.1-1.5-.8a3.3 3.3 0 011.5-2.6c.8-.5 1.5-.1 1.5.8z" class="cls-3" />
      <path d="M198.2 134.5l-17.5-10c-1.1-.7-1-1.8.3-2.5l16.9-9.7a4.7 4.7 0 014.2-.2l17.5 10c1 .7.9 1.8-.3 2.5l-17 9.8a4.6 4.6 0 01-4.1.1z" class="cls-2" />
      <path d="M199.8 126l-2.4-1.3c-.1-.1-.1-.3 0-.4l2.4-1.3a.6.6 0 01.6 0l2.4 1.4v.3l-2.3 1.4a.6.6 0 01-.7 0z" class="cls-3" />
      <path d="M180.7 124.4a1.6 1.6 0 01.3-.1l16.9-9.8a4.6 4.6 0 014.2-.2l17.4 10.1c1-.7 1-1.7 0-2.2L202.2 112a4.7 4.7 0 00-4.2.1L181 122c-1.3.7-1.4 1.8-.3 2.4z" class="cls-4" />
      <path d="M194.5 151c0 1-.7 1.4-1.6 1a3.5 3.5 0 01-1.6-2.8c0-1 .7-1.5 1.6-1a3.5 3.5 0 011.6 2.8z" class="cls-3" />
      <path d="M189.6 148.2c0 1-.8 1.4-1.6.9a3.5 3.5 0 01-1.6-2.8c0-1 .7-1.4 1.6-.9a3.5 3.5 0 011.6 2.8z" class="cls-5" />
      <path d="M194.5 157c0 1-.7 1.4-1.6 1a3.5 3.5 0 01-1.6-2.8c0-1 .7-1.5 1.6-1a3.5 3.5 0 011.6 2.8z" class="cls-9" />
      <path d="M189.6 154.1c0 1-.8 1.4-1.6 1a3.5 3.5 0 01-1.6-2.8c0-1 .7-1.5 1.6-1a3.5 3.5 0 011.6 2.8zM194.5 171.5c0 1-.7 1.4-1.6.9a3.5 3.5 0 01-1.6-2.8c0-1 .7-1.4 1.6-.9a3.5 3.5 0 011.6 2.8zM189.6 168.6c0 1-.8 1.5-1.6 1a3.5 3.5 0 01-1.6-2.8c0-1 .7-1.4 1.6-1a3.5 3.5 0 011.6 2.8z" class="cls-3" />
      <path d="M194.5 177.4c0 1-.7 1.5-1.6 1a3.5 3.5 0 01-1.6-2.8c0-1 .7-1.4 1.6-1a3.5 3.5 0 011.6 2.8z" class="cls-5" />
      <path d="M189.6 174.6c0 1-.8 1.4-1.6 1a3.5 3.5 0 01-1.6-2.8c0-1 .7-1.5 1.6-1a3.5 3.5 0 011.6 2.8zM194.5 192c0 1-.7 1.4-1.6 1a3.5 3.5 0 01-1.6-2.8c0-1 .7-1.5 1.6-1a3.5 3.5 0 011.6 2.8z" class="cls-3" />
      <path d="M189.6 189.2c0 1-.8 1.4-1.6.9a3.5 3.5 0 01-1.6-2.8c0-1 .7-1.4 1.6-.9a3.5 3.5 0 011.6 2.8z" class="cls-5" />
      <path d="M194.5 198c0 1-.7 1.4-1.6.9a3.5 3.5 0 01-1.6-2.8c0-1 .7-1.4 1.6-1a3.5 3.5 0 011.6 2.8z" class="cls-3" />
      <path d="M189.6 195.1c0 1-.8 1.4-1.6 1a3.5 3.5 0 01-1.6-2.8c0-1 .7-1.5 1.6-1a3.5 3.5 0 011.6 2.8zM194.5 212.7c0 1-.7 1.4-1.6 1a3.5 3.5 0 01-1.6-2.8c0-1 .7-1.5 1.6-1a3.5 3.5 0 011.6 2.8z" class="cls-9" />
      <path d="M189.6 209.9c0 1-.8 1.4-1.6.9a3.5 3.5 0 01-1.6-2.8c0-1 .7-1.4 1.6-.9a3.5 3.5 0 011.6 2.8z" class="cls-3" />
      <path d="M194.5 218.7c0 1-.7 1.4-1.6.9a3.5 3.5 0 01-1.6-2.8c0-1 .7-1.4 1.6-.9a3.5 3.5 0 011.6 2.8z" class="cls-9" />
      <path d="M189.6 215.8c0 1-.8 1.4-1.6 1a3.5 3.5 0 01-1.6-2.8c0-1 .7-1.4 1.6-1a3.6 3.6 0 011.6 2.8z" class="cls-5" />
      <path d="M194.5 233.2c0 1-.7 1.4-1.6 1a3.5 3.5 0 01-1.6-2.8c0-1 .7-1.5 1.6-1a3.5 3.5 0 011.6 2.8z" class="cls-9" />
      <path d="M189.6 230.4c0 1-.8 1.4-1.6.9a3.5 3.5 0 01-1.6-2.8c0-1 .7-1.4 1.6-.9a3.6 3.6 0 011.6 2.8z" class="cls-3" />
      <path d="M194.5 239.2c0 1-.7 1.4-1.6.9a3.5 3.5 0 01-1.6-2.8c0-1 .7-1.4 1.6-.9a3.5 3.5 0 011.6 2.8z" class="cls-5" />
      <path d="M189.6 236.3c0 1-.8 1.5-1.6 1a3.5 3.5 0 01-1.6-2.8c0-1 .7-1.4 1.6-1a3.6 3.6 0 011.6 2.8z" class="cls-9" />
      <path d="M194.5 254c0 1-.7 1.4-1.6 1a3.5 3.5 0 01-1.6-2.8c0-1 .7-1.5 1.6-1a3.5 3.5 0 011.6 2.8z" class="cls-3" />
      <path d="M189.6 251.1c0 1-.8 1.5-1.6 1a3.5 3.5 0 01-1.6-2.8c0-1 .7-1.4 1.6-1a3.5 3.5 0 011.6 2.8z" class="cls-5" />
      <path d="M194.5 260c0 1-.7 1.4-1.6.9a3.5 3.5 0 01-1.6-2.8c0-1 .7-1.4 1.6-1a3.5 3.5 0 011.6 2.8z" class="cls-3" />
      <path d="M189.6 257.1c0 1-.8 1.4-1.6 1a3.5 3.5 0 01-1.6-2.8c0-1 .7-1.5 1.6-1a3.5 3.5 0 011.6 2.8z" class="cls-9" />
    </g>
  </g>
</svg>